%TF.GenerationSoftware,KiCad,Pcbnew,9.0.6-9.0.6~ubuntu22.04.1*%
%TF.CreationDate,2025-12-28T19:28:57-08:00*%
%TF.ProjectId,tool2,746f6f6c-322e-46b6-9963-61645f706362,rev?*%
%TF.SameCoordinates,Original*%
%TF.FileFunction,Copper,L4,Bot*%
%TF.FilePolarity,Positive*%
%FSLAX46Y46*%
G04 Gerber Fmt 4.6, Leading zero omitted, Abs format (unit mm)*
G04 Created by KiCad (PCBNEW 9.0.6-9.0.6~ubuntu22.04.1) date 2025-12-28 19:28:57*
%MOMM*%
%LPD*%
G01*
G04 APERTURE LIST*
G04 Aperture macros list*
%AMRoundRect*
0 Rectangle with rounded corners*
0 $1 Rounding radius*
0 $2 $3 $4 $5 $6 $7 $8 $9 X,Y pos of 4 corners*
0 Add a 4 corners polygon primitive as box body*
4,1,4,$2,$3,$4,$5,$6,$7,$8,$9,$2,$3,0*
0 Add four circle primitives for the rounded corners*
1,1,$1+$1,$2,$3*
1,1,$1+$1,$4,$5*
1,1,$1+$1,$6,$7*
1,1,$1+$1,$8,$9*
0 Add four rect primitives between the rounded corners*
20,1,$1+$1,$2,$3,$4,$5,0*
20,1,$1+$1,$4,$5,$6,$7,0*
20,1,$1+$1,$6,$7,$8,$9,0*
20,1,$1+$1,$8,$9,$2,$3,0*%
G04 Aperture macros list end*
%TA.AperFunction,ComponentPad*%
%ADD10R,1.560000X1.560000*%
%TD*%
%TA.AperFunction,ComponentPad*%
%ADD11C,1.560000*%
%TD*%
%TA.AperFunction,SMDPad,CuDef*%
%ADD12R,0.700000X1.100000*%
%TD*%
%TA.AperFunction,SMDPad,CuDef*%
%ADD13R,1.050000X0.780000*%
%TD*%
%TA.AperFunction,SMDPad,CuDef*%
%ADD14R,0.900000X0.930000*%
%TD*%
%TA.AperFunction,SMDPad,CuDef*%
%ADD15R,0.700000X3.330000*%
%TD*%
%TA.AperFunction,SMDPad,CuDef*%
%ADD16R,0.860000X2.800000*%
%TD*%
%TA.AperFunction,SMDPad,CuDef*%
%ADD17R,1.140000X1.830000*%
%TD*%
%TA.AperFunction,ComponentPad*%
%ADD18C,1.500000*%
%TD*%
%TA.AperFunction,ComponentPad*%
%ADD19O,2.000000X1.200000*%
%TD*%
%TA.AperFunction,ComponentPad*%
%ADD20C,1.350000*%
%TD*%
%TA.AperFunction,ComponentPad*%
%ADD21C,2.400000*%
%TD*%
%TA.AperFunction,ComponentPad*%
%ADD22O,1.524000X3.048000*%
%TD*%
%TA.AperFunction,ComponentPad*%
%ADD23RoundRect,0.250000X0.510000X0.510000X-0.510000X0.510000X-0.510000X-0.510000X0.510000X-0.510000X0*%
%TD*%
%TA.AperFunction,ComponentPad*%
%ADD24C,1.520000*%
%TD*%
%TA.AperFunction,ViaPad*%
%ADD25C,0.600000*%
%TD*%
%TA.AperFunction,ViaPad*%
%ADD26C,0.711200*%
%TD*%
%TA.AperFunction,Conductor*%
%ADD27C,0.200000*%
%TD*%
%TA.AperFunction,Conductor*%
%ADD28C,0.750000*%
%TD*%
%TA.AperFunction,Conductor*%
%ADD29C,0.406400*%
%TD*%
%TA.AperFunction,Conductor*%
%ADD30C,0.152400*%
%TD*%
G04 APERTURE END LIST*
D10*
%TO.P,U1,J2-1,3V3*%
%TO.N,+3V3*%
X152363100Y-112557600D03*
D11*
%TO.P,U1,J2-2,EN*%
%TO.N,unconnected-(U1-EN-PadJ2-2)*%
X152363100Y-115097600D03*
%TO.P,U1,J2-3,SENSOR_VP*%
%TO.N,unconnected-(U1-SENSOR_VP-PadJ2-3)*%
X152363100Y-117637600D03*
%TO.P,U1,J2-4,SENSOR_VN*%
%TO.N,/I2C_INT*%
X152363100Y-120177600D03*
%TO.P,U1,J2-5,IO34*%
%TO.N,Net-(U1-IO34)*%
X152363100Y-122717600D03*
%TO.P,U1,J2-6,IO35*%
%TO.N,Net-(U1-IO35)*%
X152363100Y-125257600D03*
%TO.P,U1,J2-7,IO32*%
%TO.N,/RM_1*%
X152363100Y-127797600D03*
%TO.P,U1,J2-8,IO33*%
%TO.N,/RM_2*%
X152363100Y-130337600D03*
%TO.P,U1,J2-9,IO25*%
%TO.N,/DAC_LRCK*%
X152363100Y-132877600D03*
%TO.P,U1,J2-10,IO26*%
%TO.N,/DAC_BCK*%
X152363100Y-135417600D03*
%TO.P,U1,J2-11,IO27*%
%TO.N,/F{slash}R_1*%
X152363100Y-137957600D03*
%TO.P,U1,J2-12,IO14*%
%TO.N,/SD_DET*%
X152363100Y-140497600D03*
%TO.P,U1,J2-13,IO12*%
%TO.N,/F{slash}R_2*%
X152363100Y-143037600D03*
%TO.P,U1,J2-14,GND1*%
%TO.N,GND*%
X152363100Y-145577600D03*
%TO.P,U1,J2-15,IO13*%
%TO.N,unconnected-(U1-IO13-PadJ2-15)*%
X152363100Y-148117600D03*
%TO.P,U1,J2-16,SD2*%
%TO.N,unconnected-(U1-SD2-PadJ2-16)*%
X152363100Y-150657600D03*
%TO.P,U1,J2-17,SD3*%
%TO.N,unconnected-(U1-SD3-PadJ2-17)*%
X152363100Y-153197600D03*
%TO.P,U1,J2-18,CMD*%
%TO.N,unconnected-(U1-CMD-PadJ2-18)*%
X152363100Y-155737600D03*
%TO.P,U1,J2-19,EXT_5V*%
%TO.N,Net-(U1-EXT_5V)*%
X152363100Y-158277600D03*
%TO.P,U1,J3-1,GND3*%
%TO.N,GND*%
X177763100Y-112557600D03*
%TO.P,U1,J3-2,IO23*%
%TO.N,/SD_MOSI*%
X177763100Y-115097600D03*
%TO.P,U1,J3-3,IO22*%
%TO.N,/DAC_DIN*%
X177763100Y-117637600D03*
%TO.P,U1,J3-4,TXD0*%
%TO.N,unconnected-(U1-TXD0-PadJ3-4)*%
X177763100Y-120177600D03*
%TO.P,U1,J3-5,RXD0*%
%TO.N,unconnected-(U1-RXD0-PadJ3-5)*%
X177763100Y-122717600D03*
%TO.P,U1,J3-6,IO21*%
%TO.N,unconnected-(U1-IO21-PadJ3-6)*%
X177763100Y-125257600D03*
%TO.P,U1,J3-7,GND2*%
%TO.N,GND*%
X177763100Y-127797600D03*
%TO.P,U1,J3-8,IO19*%
%TO.N,/SD_MISO*%
X177763100Y-130337600D03*
%TO.P,U1,J3-9,IO18*%
%TO.N,/SD_SCK*%
X177763100Y-132877600D03*
%TO.P,U1,J3-10,IO5*%
%TO.N,/SD_SS*%
X177763100Y-135417600D03*
%TO.P,U1,J3-11,IO17*%
%TO.N,/BTN2*%
X177763100Y-137957600D03*
%TO.P,U1,J3-12,IO16*%
%TO.N,/BTN1*%
X177763100Y-140497600D03*
%TO.P,U1,J3-13,IO4*%
%TO.N,/OLED_SDA*%
X177763100Y-143037600D03*
%TO.P,U1,J3-14,IO0*%
%TO.N,/LEDG*%
X177763100Y-145577600D03*
%TO.P,U1,J3-15,IO2*%
%TO.N,/LEDR*%
X177763100Y-148117600D03*
%TO.P,U1,J3-16,IO15*%
%TO.N,/OLED_SCL*%
X177763100Y-150657600D03*
%TO.P,U1,J3-17,SD1*%
%TO.N,unconnected-(U1-SD1-PadJ3-17)*%
X177763100Y-153197600D03*
%TO.P,U1,J3-18,SD0*%
%TO.N,unconnected-(U1-SD0-PadJ3-18)*%
X177763100Y-155737600D03*
%TO.P,U1,J3-19,CLK*%
%TO.N,unconnected-(U1-CLK-PadJ3-19)*%
X177763100Y-158277600D03*
%TD*%
D12*
%TO.P,J7,P8,DAT1*%
%TO.N,unconnected-(J7-DAT1-PadP8)*%
X133934100Y-153699600D03*
%TO.P,J7,P7,DAT0/MISO*%
%TO.N,Net-(J7-DAT0{slash}MISO)*%
X132834100Y-153699600D03*
%TO.P,J7,P6,VSS*%
%TO.N,GND*%
X131734100Y-153699600D03*
%TO.P,J7,P5,CLK*%
%TO.N,Net-(J7-CLK)*%
X130634100Y-153699600D03*
%TO.P,J7,P4,VDD*%
%TO.N,+3V3*%
X129534100Y-153699600D03*
%TO.P,J7,P3,CMD/MOSI*%
%TO.N,Net-(J7-CMD{slash}MOSI)*%
X128434100Y-153699600D03*
%TO.P,J7,P2,DAT3/CS*%
%TO.N,Net-(J7-DAT3{slash}CS)*%
X127334100Y-153699600D03*
%TO.P,J7,P1,DAT2*%
%TO.N,unconnected-(J7-DAT2-PadP1)*%
X126234100Y-153699600D03*
D13*
%TO.P,J7,DSW2,SW2*%
%TO.N,GND*%
X128709100Y-141159600D03*
D14*
%TO.P,J7,DSW1,SW1*%
%TO.N,/SD_DET*%
X124444100Y-141234600D03*
D15*
%TO.P,J7,C4,VSS*%
%TO.N,GND*%
X135094100Y-142434600D03*
%TO.P,J7,C3,VSS*%
X122134100Y-142434600D03*
D16*
%TO.P,J7,C2,VSS*%
X135014100Y-153199600D03*
D17*
%TO.P,J7,C1,VSS*%
X122354100Y-153684600D03*
%TD*%
D18*
%TO.P,SW1,S2,2*%
%TO.N,/BTN1*%
X168837100Y-154415600D03*
%TO.P,SW1,S1,1*%
%TO.N,GND*%
X164337100Y-154415600D03*
%TO.P,SW1,NC2*%
%TO.N,N/C*%
X170087100Y-151915600D03*
%TO.P,SW1,NC1*%
X163087100Y-151915600D03*
%TD*%
%TO.P,SW2,S2,2*%
%TO.N,/BTN2*%
X159947100Y-154415600D03*
%TO.P,SW2,S1,1*%
%TO.N,GND*%
X155447100Y-154415600D03*
%TO.P,SW2,NC2*%
%TO.N,N/C*%
X161197100Y-151915600D03*
%TO.P,SW2,NC1*%
X154197100Y-151915600D03*
%TD*%
D19*
%TO.P,U6,14,PD*%
%TO.N,unconnected-(U6-PD-Pad14)*%
X140000000Y-123100000D03*
%TO.P,U6,13,+VPWR*%
%TO.N,+5V*%
X140000000Y-120560000D03*
%TO.P,U6,12,GND*%
%TO.N,GND*%
X140000000Y-118020000D03*
%TO.P,U6,11*%
%TO.N,N/C*%
X140000000Y-115480000D03*
%TO.P,U6,10,VOUT*%
%TO.N,Net-(U6-VOUT)*%
X140000000Y-112940000D03*
%TO.P,U6,9,VIN*%
%TO.N,Net-(U6-VIN)*%
X140000000Y-110400000D03*
%TO.P,U6,8*%
%TO.N,N/C*%
X140000000Y-107860000D03*
%TO.P,U6,7*%
X140000000Y-95160000D03*
%TO.P,U6,6*%
X140000000Y-92620000D03*
%TO.P,U6,5,SHK*%
%TO.N,/SHK_2*%
X140000000Y-90080000D03*
%TO.P,U6,4,RM*%
%TO.N,/RM_2_5V*%
X140000000Y-87540000D03*
%TO.P,U6,3,F/R*%
%TO.N,/F{slash}R_2_5V*%
X140000000Y-85000000D03*
%TO.P,U6,2,TIP*%
%TO.N,Net-(D7-A)*%
X140000000Y-82460000D03*
%TO.P,U6,1,RING*%
%TO.N,Net-(D10-K)*%
X140000000Y-79920000D03*
%TD*%
%TO.P,U9,14,PD*%
%TO.N,unconnected-(U9-PD-Pad14)*%
X125500000Y-123100000D03*
%TO.P,U9,13,+VPWR*%
%TO.N,+5V*%
X125500000Y-120560000D03*
%TO.P,U9,12,GND*%
%TO.N,GND*%
X125500000Y-118020000D03*
%TO.P,U9,11*%
%TO.N,N/C*%
X125500000Y-115480000D03*
%TO.P,U9,10,VOUT*%
%TO.N,Net-(U9-VOUT)*%
X125500000Y-112940000D03*
%TO.P,U9,9,VIN*%
%TO.N,Net-(U9-VIN)*%
X125500000Y-110400000D03*
%TO.P,U9,8*%
%TO.N,N/C*%
X125500000Y-107860000D03*
%TO.P,U9,7*%
X125500000Y-95160000D03*
%TO.P,U9,6*%
X125500000Y-92620000D03*
%TO.P,U9,5,SHK*%
%TO.N,/SHK_1*%
X125500000Y-90080000D03*
%TO.P,U9,4,RM*%
%TO.N,/RM_1_5V*%
X125500000Y-87540000D03*
%TO.P,U9,3,F/R*%
%TO.N,/F{slash}R_1_5V*%
X125500000Y-85000000D03*
%TO.P,U9,2,TIP*%
%TO.N,Net-(D2-K)*%
X125500000Y-82460000D03*
%TO.P,U9,1,RING*%
%TO.N,Net-(D4-K)*%
X125500000Y-79920000D03*
%TD*%
D20*
%TO.P,D1,A1,A1*%
%TO.N,Net-(D1-PadA1)*%
X172683100Y-155553600D03*
%TO.P,D1,A2,A2*%
%TO.N,Net-(D1-PadA2)*%
X172683100Y-153013600D03*
%TO.P,D1,K1,K1*%
%TO.N,GND*%
X175223100Y-155553600D03*
%TO.P,D1,K2,K2*%
X175223100Y-153013600D03*
%TD*%
D21*
%TO.P,TP7,P$1,P$1*%
%TO.N,GND*%
X119851100Y-151113600D03*
%TD*%
D22*
%TO.P,JP3,1,1*%
%TO.N,Net-(JP3-Pad1)*%
X137833100Y-150088600D03*
%TO.P,JP3,2,2*%
%TO.N,Net-(JP3-Pad2)*%
X140373100Y-150088600D03*
%TO.P,JP3,3,3*%
%TO.N,Net-(JP3-Pad3)*%
X142913100Y-150088600D03*
%TO.P,JP3,4,4*%
%TO.N,Net-(JP3-Pad4)*%
X145453100Y-150088600D03*
%TD*%
D23*
%TO.P,J1,1*%
%TO.N,unconnected-(J1-Pad1)*%
X131180000Y-64540000D03*
D24*
%TO.P,J1,2*%
%TO.N,unconnected-(J1-Pad2)*%
X129910000Y-62000000D03*
%TO.P,J1,3*%
%TO.N,Net-(D4-K)*%
X128640000Y-64540000D03*
%TO.P,J1,4*%
%TO.N,Net-(D2-K)*%
X127370000Y-62000000D03*
%TO.P,J1,5*%
%TO.N,unconnected-(J1-Pad5)*%
X126100000Y-64540000D03*
%TO.P,J1,6*%
%TO.N,unconnected-(J1-Pad6)*%
X124830000Y-62000000D03*
%TD*%
D23*
%TO.P,J2,1*%
%TO.N,unconnected-(J2-Pad1)*%
X151200000Y-64540000D03*
D24*
%TO.P,J2,2*%
%TO.N,unconnected-(J2-Pad2)*%
X149930000Y-62000000D03*
%TO.P,J2,3*%
%TO.N,Net-(D10-K)*%
X148660000Y-64540000D03*
%TO.P,J2,4*%
%TO.N,Net-(D7-A)*%
X147390000Y-62000000D03*
%TO.P,J2,5*%
%TO.N,unconnected-(J2-Pad5)*%
X146120000Y-64540000D03*
%TO.P,J2,6*%
%TO.N,unconnected-(J2-Pad6)*%
X144850000Y-62000000D03*
%TD*%
D25*
%TO.N,GND*%
X126000000Y-131600000D03*
X128600000Y-131600000D03*
X123400000Y-131600000D03*
X120800000Y-131600000D03*
%TO.N,+5V*%
X128600000Y-126000000D03*
X126000000Y-126000000D03*
X123400000Y-126000000D03*
X120800000Y-126000000D03*
%TO.N,+3V3A*%
X166712500Y-90287500D03*
%TO.N,/VIN_1*%
X143100000Y-105400000D03*
%TO.N,/VIN_2*%
X164700000Y-76400000D03*
X145300000Y-105300000D03*
%TO.N,/VIN_1*%
X164700000Y-66700000D03*
%TO.N,Net-(U6-VOUT)*%
X159800000Y-90500000D03*
X146800000Y-108500000D03*
%TO.N,Net-(C22-Pad1)*%
X152500000Y-100400000D03*
X159000000Y-68400000D03*
%TO.N,GND*%
X160100000Y-83000000D03*
X160100000Y-81000000D03*
%TO.N,+3V3A*%
X161000000Y-90400000D03*
%TO.N,/F{slash}R_2*%
X147600000Y-84200000D03*
X136200000Y-86600000D03*
%TO.N,/RM_1*%
X133400000Y-90600000D03*
X148800000Y-93000000D03*
%TO.N,/SHK_1*%
X150600000Y-91400000D03*
%TO.N,/SHK_2*%
X149800000Y-90000000D03*
%TO.N,/F{slash}R_2*%
X150200000Y-140000000D03*
%TO.N,GND*%
X155800000Y-93000000D03*
X154200000Y-92200000D03*
X158200000Y-143000000D03*
%TO.N,/DAC_BCK*%
X168200000Y-98200000D03*
X166000000Y-129200000D03*
%TO.N,/DAC_LRCK*%
X165400000Y-128400000D03*
X165400000Y-96800000D03*
%TO.N,+3V3*%
X161000000Y-118400000D03*
%TO.N,/I2C_INT*%
X173500000Y-115600000D03*
X174600000Y-85000000D03*
%TO.N,/OLED_SCL*%
X175400000Y-84200000D03*
%TO.N,/OLED_SDA*%
X176200000Y-83400000D03*
%TO.N,+3V3*%
X174800000Y-82000000D03*
%TO.N,GND*%
X171712500Y-101962500D03*
X172800000Y-97000000D03*
X172800000Y-95000000D03*
X172800000Y-92800000D03*
%TO.N,+3V3*%
X162600000Y-103400000D03*
X177087500Y-94800000D03*
X177087500Y-96800000D03*
X176987500Y-100800000D03*
%TO.N,/DAC_DIN*%
X174800000Y-98400000D03*
X174800000Y-116600000D03*
%TO.N,+3V3A*%
X164400000Y-69400000D03*
X161000000Y-68400000D03*
%TO.N,GND*%
X164000000Y-67400000D03*
%TO.N,/MUXA0_2*%
X166200000Y-70600000D03*
X167309394Y-84909394D03*
%TO.N,GND*%
X173000000Y-63000000D03*
X173000000Y-73000000D03*
%TO.N,+3V3A*%
X174500000Y-75500000D03*
X174500000Y-65500000D03*
%TO.N,GND*%
X176500000Y-65500000D03*
X176500000Y-75500000D03*
%TO.N,*%
X136500000Y-142500000D03*
X128500000Y-142500000D03*
X128500000Y-150000000D03*
%TO.N,GND*%
X122000000Y-140000000D03*
X138000000Y-76000000D03*
%TO.N,/SNUB*%
X134500000Y-73000000D03*
X139000000Y-73000000D03*
X152500000Y-72500000D03*
X122000000Y-73000000D03*
%TO.N,GND*%
X147500000Y-83000000D03*
X147000000Y-87000000D03*
X147500000Y-89000000D03*
%TO.N,+5V*%
X143000000Y-87000000D03*
%TO.N,GND*%
X147000000Y-93000000D03*
%TO.N,+5V*%
X143000000Y-93000000D03*
X129000000Y-93000000D03*
X129000000Y-87000000D03*
%TO.N,+3V3A*%
X148500000Y-137800000D03*
X148500000Y-136800000D03*
X148500000Y-135800000D03*
X164500000Y-60000000D03*
%TO.N,GND*%
X126500000Y-136300000D03*
X162500000Y-98750000D03*
X161000000Y-78000000D03*
X133500000Y-89000000D03*
X136550000Y-130350000D03*
D26*
X171921100Y-144255600D03*
D25*
X164750000Y-73000000D03*
X167500000Y-86250000D03*
X176250000Y-73500000D03*
X160500000Y-60000000D03*
D26*
X136615100Y-154415600D03*
D25*
X160500000Y-69500000D03*
X160000000Y-127500000D03*
X148000000Y-133800000D03*
X152000000Y-70000000D03*
X176500000Y-63500000D03*
X172750000Y-99000000D03*
D26*
X163539100Y-146541600D03*
D25*
X138000000Y-131300000D03*
X141500000Y-70000000D03*
X166750000Y-101750000D03*
X133500000Y-83000000D03*
X122500000Y-135300000D03*
X135000000Y-76000000D03*
X133000000Y-93000000D03*
X139000000Y-133300000D03*
X176250000Y-82000000D03*
X165500000Y-94250000D03*
X122500000Y-70500000D03*
D26*
X171921100Y-138159600D03*
D25*
X129500000Y-136300000D03*
X162500000Y-95000000D03*
D26*
X127471100Y-154923600D03*
D25*
X133000000Y-87000000D03*
X134000000Y-70500000D03*
X142375000Y-133175000D03*
X145500000Y-133300000D03*
X163750000Y-91500000D03*
X136500000Y-133300000D03*
X160500000Y-61000000D03*
X154250000Y-100500000D03*
X161250000Y-86250000D03*
X164000000Y-71750000D03*
X123000000Y-136300000D03*
X161000000Y-122500000D03*
X167500000Y-63000000D03*
D26*
%TO.N,+3V3*%
X129503100Y-155177600D03*
%TO.N,/SD_DET*%
X124423100Y-140191600D03*
%TO.N,Net-(J7-DAT0{slash}MISO)*%
X132297100Y-150097600D03*
%TO.N,Net-(J7-CLK)*%
X130519100Y-150859600D03*
%TO.N,Net-(J7-DAT3{slash}CS)*%
X127471100Y-152129600D03*
%TO.N,Net-(J7-CMD{slash}MOSI)*%
X128487100Y-151545400D03*
D25*
%TO.N,+3V3A*%
X161000000Y-70750000D03*
X163000000Y-78000000D03*
%TD*%
D27*
%TO.N,/I2C_INT*%
X174000000Y-85600000D02*
X174600000Y-85000000D01*
X173500000Y-115600000D02*
X174000000Y-115100000D01*
X174000000Y-115100000D02*
X174000000Y-85600000D01*
%TO.N,/VIN_1*%
X143100000Y-105400000D02*
X143700000Y-105400000D01*
X164400000Y-79900000D02*
X165700000Y-78600000D01*
X143700000Y-105400000D02*
X144700000Y-106400000D01*
X165700000Y-78600000D02*
X165700000Y-72200000D01*
X144700000Y-106400000D02*
X154800000Y-106400000D01*
X162400000Y-79900000D02*
X164400000Y-79900000D01*
X154800000Y-106400000D02*
X158500000Y-102700000D01*
X158500000Y-83800000D02*
X162400000Y-79900000D01*
X158500000Y-102700000D02*
X158500000Y-83800000D01*
X165700000Y-72200000D02*
X165200000Y-71700000D01*
X165200000Y-71700000D02*
X165200000Y-67200000D01*
X165200000Y-67200000D02*
X164700000Y-66700000D01*
%TO.N,/VIN_2*%
X151700000Y-105300000D02*
X145300000Y-105300000D01*
X164700000Y-78200000D02*
X164000000Y-78900000D01*
X163400000Y-78900000D02*
X160100000Y-78900000D01*
X164700000Y-76400000D02*
X164700000Y-78200000D01*
X164000000Y-78900000D02*
X163400000Y-78900000D01*
X157200000Y-81800000D02*
X157200000Y-99800000D01*
X157200000Y-99800000D02*
X154300000Y-102700000D01*
X160100000Y-78900000D02*
X157200000Y-81800000D01*
X154300000Y-102700000D02*
X151700000Y-105300000D01*
%TO.N,Net-(U6-VOUT)*%
X159200000Y-107100000D02*
X157800000Y-108500000D01*
X159800000Y-90500000D02*
X159800000Y-106500000D01*
X157800000Y-108500000D02*
X152000000Y-108500000D01*
X159800000Y-106500000D02*
X159200000Y-107100000D01*
X152000000Y-108500000D02*
X146800000Y-108500000D01*
%TO.N,Net-(C22-Pad1)*%
X153400000Y-101300000D02*
X152500000Y-100400000D01*
X156400000Y-71000000D02*
X156400000Y-86500000D01*
X159000000Y-68400000D02*
X156400000Y-71000000D01*
X154500000Y-101300000D02*
X153400000Y-101300000D01*
X156400000Y-86500000D02*
X156400000Y-99400000D01*
X156400000Y-99400000D02*
X154500000Y-101300000D01*
%TO.N,/F{slash}R_2*%
X145600000Y-86200000D02*
X147600000Y-84200000D01*
X138400000Y-86200000D02*
X145600000Y-86200000D01*
X136200000Y-86600000D02*
X136600000Y-86200000D01*
X136600000Y-86200000D02*
X138400000Y-86200000D01*
%TO.N,/RM_1*%
X133400000Y-90600000D02*
X137200000Y-90600000D01*
X137200000Y-90600000D02*
X138366600Y-91766600D01*
X138366600Y-91766600D02*
X147566600Y-91766600D01*
X147566600Y-91766600D02*
X148800000Y-93000000D01*
%TO.N,/SHK_1*%
X150600000Y-91400000D02*
X138600000Y-91400000D01*
X138600000Y-91400000D02*
X137000000Y-89800000D01*
X137000000Y-89800000D02*
X125780000Y-89800000D01*
X125780000Y-89800000D02*
X125500000Y-90080000D01*
%TO.N,/SHK_2*%
X140000000Y-90080000D02*
X149720000Y-90080000D01*
X149720000Y-90080000D02*
X149800000Y-90000000D01*
%TO.N,/F{slash}R_2*%
X152363100Y-143037600D02*
X150200000Y-140874500D01*
X150200000Y-140874500D02*
X150200000Y-140000000D01*
%TO.N,/DAC_BCK*%
X166000000Y-129200000D02*
X166000000Y-100400000D01*
X166000000Y-100400000D02*
X168200000Y-98200000D01*
%TO.N,/DAC_LRCK*%
X165400000Y-96800000D02*
X165400000Y-128400000D01*
%TO.N,/OLED_SCL*%
X177763100Y-150657600D02*
X175400000Y-148294500D01*
%TO.N,/OLED_SDA*%
X177763100Y-143037600D02*
X176200000Y-141474500D01*
X176200000Y-141474500D02*
X176200000Y-140800000D01*
%TO.N,/DAC_DIN*%
X174800000Y-98400000D02*
X174800000Y-116600000D01*
%TO.N,/MUXA0_2*%
X167309394Y-71709394D02*
X166200000Y-70600000D01*
X167309394Y-84909394D02*
X167309394Y-71709394D01*
%TO.N,GND*%
X122134100Y-140134100D02*
X122000000Y-140000000D01*
X122134100Y-142434600D02*
X122134100Y-140134100D01*
D28*
%TO.N,/SNUB*%
X122000000Y-73000000D02*
X152000000Y-73000000D01*
X152000000Y-73000000D02*
X152500000Y-72500000D01*
D29*
%TO.N,+3V3*%
X129534100Y-155146600D02*
X129503100Y-155177600D01*
X129534100Y-153699600D02*
X129534100Y-155146600D01*
D30*
%TO.N,/SD_DET*%
X124423100Y-140191600D02*
X124444100Y-140212600D01*
X124444100Y-140212600D02*
X124444100Y-141234600D01*
%TO.N,Net-(J7-DAT0{slash}MISO)*%
X132834100Y-150651600D02*
X132297100Y-150114600D01*
X132834100Y-150651600D02*
X132834100Y-153699600D01*
X132297100Y-150097600D02*
X132297100Y-150114600D01*
%TO.N,Net-(J7-CLK)*%
X130519100Y-153584600D02*
X130634100Y-153699600D01*
X130519100Y-150859600D02*
X130519100Y-153584600D01*
%TO.N,Net-(J7-DAT3{slash}CS)*%
X127471100Y-153562600D02*
X127334100Y-153699600D01*
X127471100Y-152129600D02*
X127471100Y-153562600D01*
%TO.N,Net-(J7-CMD{slash}MOSI)*%
X128487100Y-153646600D02*
X128434100Y-153699600D01*
X128487100Y-151545400D02*
X128487100Y-153646600D01*
D27*
%TO.N,/OLED_SDA*%
X176200000Y-140800000D02*
X176200000Y-83400000D01*
%TO.N,/OLED_SCL*%
X175400000Y-148294500D02*
X175400000Y-84200000D01*
%TD*%
%TA.AperFunction,Conductor*%
%TO.N,GND*%
G36*
X124019939Y-139519685D02*
G01*
X124065694Y-139572489D01*
X124075638Y-139641647D01*
X124046613Y-139705203D01*
X124038345Y-139713250D01*
X124038491Y-139713396D01*
X123949206Y-139802680D01*
X123949203Y-139802684D01*
X123882437Y-139902605D01*
X123882436Y-139902608D01*
X123836446Y-140013638D01*
X123836444Y-140013646D01*
X123813000Y-140131507D01*
X123813000Y-140131510D01*
X123813000Y-140251690D01*
X123813000Y-140251692D01*
X123812999Y-140251692D01*
X123836444Y-140369553D01*
X123836445Y-140369556D01*
X123836446Y-140369560D01*
X123853054Y-140409656D01*
X123862159Y-140431638D01*
X123869626Y-140501108D01*
X123838351Y-140563586D01*
X123816493Y-140582188D01*
X123810616Y-140586115D01*
X123754366Y-140670299D01*
X123754364Y-140670303D01*
X123739600Y-140744528D01*
X123739600Y-141724663D01*
X123754366Y-141798901D01*
X123810615Y-141883084D01*
X123844334Y-141905614D01*
X123894799Y-141939334D01*
X123894802Y-141939334D01*
X123894803Y-141939335D01*
X123919766Y-141944300D01*
X123969033Y-141954100D01*
X124919166Y-141954099D01*
X124993401Y-141939334D01*
X125077584Y-141883084D01*
X125133834Y-141798901D01*
X125148600Y-141724667D01*
X125148600Y-141597444D01*
X127684100Y-141597444D01*
X127690501Y-141656972D01*
X127690503Y-141656979D01*
X127740745Y-141791686D01*
X127740749Y-141791693D01*
X127826909Y-141906787D01*
X127826912Y-141906790D01*
X127942006Y-141992950D01*
X127942013Y-141992954D01*
X127977822Y-142006310D01*
X128033756Y-142048181D01*
X128058173Y-142113645D01*
X128043322Y-142181918D01*
X128041877Y-142184491D01*
X127983288Y-142285970D01*
X127983288Y-142285971D01*
X127945500Y-142426999D01*
X127945500Y-142573000D01*
X127983288Y-142714028D01*
X127983289Y-142714031D01*
X128056286Y-142840467D01*
X128056288Y-142840470D01*
X128056289Y-142840471D01*
X128159529Y-142943711D01*
X128285971Y-143016712D01*
X128426999Y-143054500D01*
X128427001Y-143054500D01*
X128572999Y-143054500D01*
X128573001Y-143054500D01*
X128714029Y-143016712D01*
X128840471Y-142943711D01*
X128943711Y-142840471D01*
X129016712Y-142714029D01*
X129054500Y-142573001D01*
X129054500Y-142426999D01*
X129016712Y-142285971D01*
X128987630Y-142235599D01*
X128971159Y-142167699D01*
X128994011Y-142101672D01*
X129048933Y-142058482D01*
X129095018Y-142049600D01*
X129281928Y-142049600D01*
X129281944Y-142049599D01*
X129341472Y-142043198D01*
X129341479Y-142043196D01*
X129476186Y-141992954D01*
X129476193Y-141992950D01*
X129591287Y-141906790D01*
X129591290Y-141906787D01*
X129677450Y-141791693D01*
X129677454Y-141791686D01*
X129727696Y-141656979D01*
X129727698Y-141656972D01*
X129734099Y-141597444D01*
X129734100Y-141597427D01*
X129734100Y-141409600D01*
X127684100Y-141409600D01*
X127684100Y-141597444D01*
X125148600Y-141597444D01*
X125148599Y-141092169D01*
X125148599Y-140744537D01*
X125148599Y-140744534D01*
X125144068Y-140721755D01*
X127684100Y-140721755D01*
X127684100Y-140909600D01*
X128459100Y-140909600D01*
X128959100Y-140909600D01*
X129734100Y-140909600D01*
X129734100Y-140721772D01*
X129734099Y-140721755D01*
X129727698Y-140662227D01*
X129727696Y-140662220D01*
X129677454Y-140527513D01*
X129677450Y-140527506D01*
X129591290Y-140412412D01*
X129591287Y-140412409D01*
X129476193Y-140326249D01*
X129476186Y-140326245D01*
X129341479Y-140276003D01*
X129341472Y-140276001D01*
X129281944Y-140269600D01*
X128959100Y-140269600D01*
X128959100Y-140909600D01*
X128459100Y-140909600D01*
X128459100Y-140269600D01*
X128136255Y-140269600D01*
X128076727Y-140276001D01*
X128076720Y-140276003D01*
X127942013Y-140326245D01*
X127942006Y-140326249D01*
X127826912Y-140412409D01*
X127826909Y-140412412D01*
X127740749Y-140527506D01*
X127740745Y-140527513D01*
X127690503Y-140662220D01*
X127690501Y-140662227D01*
X127684100Y-140721755D01*
X125144068Y-140721755D01*
X125133834Y-140670299D01*
X125115168Y-140642365D01*
X125077584Y-140586115D01*
X125038815Y-140560211D01*
X124994010Y-140506599D01*
X124985303Y-140437274D01*
X124993143Y-140409662D01*
X125009754Y-140369560D01*
X125028364Y-140276001D01*
X125033200Y-140251692D01*
X125033200Y-140131507D01*
X125009755Y-140013646D01*
X125009754Y-140013640D01*
X124963764Y-139902609D01*
X124963762Y-139902607D01*
X124963762Y-139902605D01*
X124896996Y-139802684D01*
X124896993Y-139802680D01*
X124807709Y-139713396D01*
X124809213Y-139711891D01*
X124775303Y-139662115D01*
X124773428Y-139592270D01*
X124809612Y-139532500D01*
X124872366Y-139501780D01*
X124893300Y-139500000D01*
X149633619Y-139500000D01*
X149700658Y-139519685D01*
X149746413Y-139572489D01*
X149756357Y-139641647D01*
X149741006Y-139686000D01*
X149683289Y-139785968D01*
X149683288Y-139785971D01*
X149645500Y-139926999D01*
X149645500Y-140073001D01*
X149661178Y-140131510D01*
X149683288Y-140214028D01*
X149683289Y-140214031D01*
X149756286Y-140340467D01*
X149756290Y-140340472D01*
X149809181Y-140393363D01*
X149842666Y-140454686D01*
X149845500Y-140481044D01*
X149845500Y-140827829D01*
X149845500Y-140921171D01*
X149869659Y-141011332D01*
X149916329Y-141092168D01*
X150963681Y-142139520D01*
X150997166Y-142200842D01*
X151000000Y-142227200D01*
X151000000Y-156376000D01*
X150980315Y-156443039D01*
X150927511Y-156488794D01*
X150876000Y-156500000D01*
X118124000Y-156500000D01*
X118056961Y-156480315D01*
X118011206Y-156427511D01*
X118000000Y-156376000D01*
X118000000Y-154647444D01*
X121284100Y-154647444D01*
X121290501Y-154706972D01*
X121290503Y-154706979D01*
X121340745Y-154841686D01*
X121340749Y-154841693D01*
X121426909Y-154956787D01*
X121426912Y-154956790D01*
X121542006Y-155042950D01*
X121542013Y-155042954D01*
X121676720Y-155093196D01*
X121676727Y-155093198D01*
X121736255Y-155099599D01*
X121736272Y-155099600D01*
X122104100Y-155099600D01*
X122604100Y-155099600D01*
X122971928Y-155099600D01*
X122971944Y-155099599D01*
X123031472Y-155093198D01*
X123031479Y-155093196D01*
X123166186Y-155042954D01*
X123166193Y-155042950D01*
X123281287Y-154956790D01*
X123281290Y-154956787D01*
X123367450Y-154841693D01*
X123367454Y-154841686D01*
X123417696Y-154706979D01*
X123417698Y-154706972D01*
X123424099Y-154647444D01*
X123424100Y-154647427D01*
X123424100Y-153934600D01*
X122604100Y-153934600D01*
X122604100Y-155099600D01*
X122104100Y-155099600D01*
X122104100Y-153934600D01*
X121284100Y-153934600D01*
X121284100Y-154647444D01*
X118000000Y-154647444D01*
X118000000Y-151710354D01*
X118019685Y-151643315D01*
X118072489Y-151597560D01*
X118141647Y-151587616D01*
X118205203Y-151616641D01*
X118238561Y-151662901D01*
X118323144Y-151867100D01*
X118323154Y-151867120D01*
X118434564Y-152060091D01*
X118434566Y-152060095D01*
X118570230Y-152236893D01*
X118570238Y-152236902D01*
X118727798Y-152394462D01*
X118727806Y-152394469D01*
X118904604Y-152530133D01*
X118904608Y-152530135D01*
X119097579Y-152641545D01*
X119097597Y-152641554D01*
X119303479Y-152726835D01*
X119518732Y-152784512D01*
X119601099Y-152795355D01*
X119601100Y-152795355D01*
X119601100Y-151875960D01*
X119617749Y-151882857D01*
X119772307Y-151913600D01*
X119929893Y-151913600D01*
X120084451Y-151882857D01*
X120101100Y-151875960D01*
X120101100Y-152795355D01*
X120183467Y-152784512D01*
X120398720Y-152726835D01*
X120410984Y-152721755D01*
X121284100Y-152721755D01*
X121284100Y-153434600D01*
X122104100Y-153434600D01*
X122604100Y-153434600D01*
X123424100Y-153434600D01*
X123424100Y-153124528D01*
X125629600Y-153124528D01*
X125629600Y-154274663D01*
X125644366Y-154348901D01*
X125700615Y-154433084D01*
X125734334Y-154455614D01*
X125784799Y-154489334D01*
X125784802Y-154489334D01*
X125784803Y-154489335D01*
X125809766Y-154494300D01*
X125859033Y-154504100D01*
X126609166Y-154504099D01*
X126683401Y-154489334D01*
X126715209Y-154468079D01*
X126781886Y-154447202D01*
X126849266Y-154465686D01*
X126852979Y-154468072D01*
X126878118Y-154484870D01*
X126884799Y-154489334D01*
X126884803Y-154489335D01*
X126909766Y-154494300D01*
X126959033Y-154504100D01*
X127709166Y-154504099D01*
X127783401Y-154489334D01*
X127815209Y-154468079D01*
X127881886Y-154447202D01*
X127949266Y-154465686D01*
X127952979Y-154468072D01*
X127978118Y-154484870D01*
X127984799Y-154489334D01*
X127984803Y-154489335D01*
X128009766Y-154494300D01*
X128059033Y-154504100D01*
X128809166Y-154504099D01*
X128883401Y-154489334D01*
X128883508Y-154489262D01*
X128883774Y-154489179D01*
X128894684Y-154484660D01*
X128894771Y-154484870D01*
X128900889Y-154479569D01*
X128925985Y-154475960D01*
X128950183Y-154468383D01*
X128959985Y-154471071D01*
X128970047Y-154469625D01*
X128993110Y-154480157D01*
X129017563Y-154486865D01*
X129024356Y-154494427D01*
X129033603Y-154498650D01*
X129047312Y-154519982D01*
X129064255Y-154538843D01*
X129066886Y-154550441D01*
X129071377Y-154557428D01*
X129076400Y-154592363D01*
X129076400Y-154690125D01*
X129056715Y-154757164D01*
X129040081Y-154777806D01*
X129029206Y-154788680D01*
X129029203Y-154788684D01*
X128962437Y-154888605D01*
X128962436Y-154888608D01*
X128916446Y-154999638D01*
X128916444Y-154999646D01*
X128893000Y-155117507D01*
X128893000Y-155117510D01*
X128893000Y-155237690D01*
X128893000Y-155237692D01*
X128892999Y-155237692D01*
X128916444Y-155355553D01*
X128916446Y-155355561D01*
X128962436Y-155466591D01*
X128962437Y-155466594D01*
X129029203Y-155566515D01*
X129029206Y-155566519D01*
X129114180Y-155651493D01*
X129114184Y-155651496D01*
X129214105Y-155718262D01*
X129214107Y-155718262D01*
X129214109Y-155718264D01*
X129325140Y-155764254D01*
X129354003Y-155769995D01*
X129443007Y-155787700D01*
X129443010Y-155787700D01*
X129563192Y-155787700D01*
X129622527Y-155775896D01*
X129681060Y-155764254D01*
X129792091Y-155718264D01*
X129892016Y-155651496D01*
X129976996Y-155566516D01*
X130043764Y-155466591D01*
X130089754Y-155355560D01*
X130113200Y-155237690D01*
X130113200Y-155117510D01*
X130113200Y-155117507D01*
X130089755Y-154999646D01*
X130089754Y-154999640D01*
X130043764Y-154888609D01*
X130012696Y-154842113D01*
X130007046Y-154824067D01*
X129996823Y-154808159D01*
X129992371Y-154777198D01*
X129991820Y-154775437D01*
X129991800Y-154773224D01*
X129991800Y-154592363D01*
X130011485Y-154525324D01*
X130064289Y-154479569D01*
X130133447Y-154469625D01*
X130173404Y-154484936D01*
X130173519Y-154484661D01*
X130183815Y-154488926D01*
X130184691Y-154489261D01*
X130184799Y-154489334D01*
X130184802Y-154489334D01*
X130184803Y-154489335D01*
X130209766Y-154494300D01*
X130259033Y-154504100D01*
X130887967Y-154504099D01*
X130955006Y-154523783D01*
X130987233Y-154553788D01*
X131026905Y-154606782D01*
X131026914Y-154606791D01*
X131142006Y-154692950D01*
X131142013Y-154692954D01*
X131276720Y-154743196D01*
X131276727Y-154743198D01*
X131336255Y-154749599D01*
X131336272Y-154749600D01*
X131484100Y-154749600D01*
X131484100Y-152649600D01*
X131336255Y-152649600D01*
X131276727Y-152656001D01*
X131276720Y-152656003D01*
X131142013Y-152706245D01*
X131142006Y-152706249D01*
X131048111Y-152776540D01*
X130982647Y-152800958D01*
X130914374Y-152786107D01*
X130864968Y-152736702D01*
X130849800Y-152677274D01*
X130849800Y-151438673D01*
X130869485Y-151371634D01*
X130904912Y-151335569D01*
X130908016Y-151333496D01*
X130992996Y-151248516D01*
X131059764Y-151148591D01*
X131105754Y-151037560D01*
X131123028Y-150950718D01*
X131129200Y-150919692D01*
X131129200Y-150799507D01*
X131105755Y-150681646D01*
X131105754Y-150681640D01*
X131059764Y-150570609D01*
X131059762Y-150570607D01*
X131059762Y-150570605D01*
X130992996Y-150470684D01*
X130992993Y-150470680D01*
X130908019Y-150385706D01*
X130908015Y-150385703D01*
X130808094Y-150318937D01*
X130808091Y-150318936D01*
X130697061Y-150272946D01*
X130697053Y-150272944D01*
X130579192Y-150249500D01*
X130579190Y-150249500D01*
X130459010Y-150249500D01*
X130459008Y-150249500D01*
X130341146Y-150272944D01*
X130341138Y-150272946D01*
X130230108Y-150318936D01*
X130230105Y-150318937D01*
X130130184Y-150385703D01*
X130130180Y-150385706D01*
X130045206Y-150470680D01*
X130045203Y-150470684D01*
X129978437Y-150570605D01*
X129978436Y-150570608D01*
X129932446Y-150681638D01*
X129932444Y-150681646D01*
X129909000Y-150799507D01*
X129909000Y-150799510D01*
X129909000Y-150919690D01*
X129909000Y-150919692D01*
X129908999Y-150919692D01*
X129932444Y-151037553D01*
X129932446Y-151037561D01*
X129978436Y-151148591D01*
X129978437Y-151148594D01*
X130045203Y-151248515D01*
X130045206Y-151248519D01*
X130130178Y-151333491D01*
X130130181Y-151333493D01*
X130130184Y-151333496D01*
X130133286Y-151335569D01*
X130134545Y-151337074D01*
X130134888Y-151337356D01*
X130134834Y-151337421D01*
X130178093Y-151389176D01*
X130188400Y-151438673D01*
X130188400Y-152814854D01*
X130168715Y-152881893D01*
X130115911Y-152927648D01*
X130046753Y-152937592D01*
X129995511Y-152917958D01*
X129983402Y-152909867D01*
X129983401Y-152909866D01*
X129983400Y-152909865D01*
X129983399Y-152909865D01*
X129983396Y-152909864D01*
X129909169Y-152895100D01*
X129159036Y-152895100D01*
X129084798Y-152909866D01*
X129084796Y-152909867D01*
X129052989Y-152931120D01*
X129033993Y-152937067D01*
X129017072Y-152947553D01*
X129001332Y-152947293D01*
X128986312Y-152951997D01*
X128967115Y-152946730D01*
X128947212Y-152946403D01*
X128921957Y-152934342D01*
X128918932Y-152933512D01*
X128915353Y-152931215D01*
X128914898Y-152930912D01*
X128883401Y-152909866D01*
X128883265Y-152909838D01*
X128873053Y-152903036D01*
X128857989Y-152885062D01*
X128839766Y-152870302D01*
X128835963Y-152858781D01*
X128828173Y-152849486D01*
X128825218Y-152826223D01*
X128817868Y-152803953D01*
X128817800Y-152799838D01*
X128817800Y-152124473D01*
X128837485Y-152057434D01*
X128872912Y-152021369D01*
X128876016Y-152019296D01*
X128960996Y-151934316D01*
X129027764Y-151834391D01*
X129073754Y-151723360D01*
X129097200Y-151605490D01*
X129097200Y-151485310D01*
X129097200Y-151485307D01*
X129073755Y-151367446D01*
X129073754Y-151367440D01*
X129027764Y-151256409D01*
X129027762Y-151256407D01*
X129027762Y-151256405D01*
X128960996Y-151156484D01*
X128960993Y-151156480D01*
X128876019Y-151071506D01*
X128876015Y-151071503D01*
X128776094Y-151004737D01*
X128776091Y-151004736D01*
X128665061Y-150958746D01*
X128665053Y-150958744D01*
X128547192Y-150935300D01*
X128547190Y-150935300D01*
X128427010Y-150935300D01*
X128427008Y-150935300D01*
X128309146Y-150958744D01*
X128309138Y-150958746D01*
X128198108Y-151004736D01*
X128198105Y-151004737D01*
X128098184Y-151071503D01*
X128098180Y-151071506D01*
X128013206Y-151156480D01*
X128013203Y-151156484D01*
X127946437Y-151256405D01*
X127946436Y-151256408D01*
X127900446Y-151367438D01*
X127900444Y-151367446D01*
X127878533Y-151477597D01*
X127846148Y-151539508D01*
X127785431Y-151574082D01*
X127715662Y-151570341D01*
X127709464Y-151567966D01*
X127649061Y-151542946D01*
X127649053Y-151542944D01*
X127531192Y-151519500D01*
X127531190Y-151519500D01*
X127411010Y-151519500D01*
X127411008Y-151519500D01*
X127293146Y-151542944D01*
X127293138Y-151542946D01*
X127182108Y-151588936D01*
X127182105Y-151588937D01*
X127082184Y-151655703D01*
X127082180Y-151655706D01*
X126997206Y-151740680D01*
X126997203Y-151740684D01*
X126930437Y-151840605D01*
X126930436Y-151840608D01*
X126884446Y-151951638D01*
X126884444Y-151951646D01*
X126861000Y-152069507D01*
X126861000Y-152069510D01*
X126861000Y-152189690D01*
X126861000Y-152189692D01*
X126860999Y-152189692D01*
X126884444Y-152307553D01*
X126884446Y-152307561D01*
X126930436Y-152418591D01*
X126930437Y-152418594D01*
X126997203Y-152518515D01*
X126997206Y-152518519D01*
X127082178Y-152603491D01*
X127082181Y-152603493D01*
X127082184Y-152603496D01*
X127085286Y-152605569D01*
X127086545Y-152607074D01*
X127086888Y-152607356D01*
X127086834Y-152607421D01*
X127090378Y-152611660D01*
X127097603Y-152614960D01*
X127112464Y-152638084D01*
X127130093Y-152659176D01*
X127132045Y-152668554D01*
X127135377Y-152673738D01*
X127140400Y-152708673D01*
X127140400Y-152771100D01*
X127120715Y-152838139D01*
X127067911Y-152883894D01*
X127016402Y-152895100D01*
X126959036Y-152895100D01*
X126884798Y-152909866D01*
X126852991Y-152931120D01*
X126786314Y-152951998D01*
X126718934Y-152933514D01*
X126715209Y-152931120D01*
X126701798Y-152922159D01*
X126700034Y-152920980D01*
X126683400Y-152909865D01*
X126683396Y-152909864D01*
X126609169Y-152895100D01*
X125859036Y-152895100D01*
X125784798Y-152909866D01*
X125700615Y-152966115D01*
X125644366Y-153050299D01*
X125644364Y-153050303D01*
X125629600Y-153124528D01*
X123424100Y-153124528D01*
X123424100Y-152721772D01*
X123424099Y-152721755D01*
X123417698Y-152662227D01*
X123417696Y-152662220D01*
X123367454Y-152527513D01*
X123367450Y-152527506D01*
X123281290Y-152412412D01*
X123281287Y-152412409D01*
X123166193Y-152326249D01*
X123166186Y-152326245D01*
X123031479Y-152276003D01*
X123031472Y-152276001D01*
X122971944Y-152269600D01*
X122604100Y-152269600D01*
X122604100Y-153434600D01*
X122104100Y-153434600D01*
X122104100Y-152269600D01*
X121736255Y-152269600D01*
X121676727Y-152276001D01*
X121676720Y-152276003D01*
X121542013Y-152326245D01*
X121542006Y-152326249D01*
X121426912Y-152412409D01*
X121426909Y-152412412D01*
X121340749Y-152527506D01*
X121340745Y-152527513D01*
X121290503Y-152662220D01*
X121290501Y-152662227D01*
X121284100Y-152721755D01*
X120410984Y-152721755D01*
X120604602Y-152641554D01*
X120604609Y-152641551D01*
X120657418Y-152611063D01*
X120657419Y-152611062D01*
X120797596Y-152530132D01*
X120974393Y-152394469D01*
X120974402Y-152394462D01*
X121131962Y-152236902D01*
X121131969Y-152236893D01*
X121267633Y-152060095D01*
X121267635Y-152060091D01*
X121379045Y-151867120D01*
X121379056Y-151867100D01*
X121464335Y-151661220D01*
X121522012Y-151445967D01*
X121532856Y-151363600D01*
X120613461Y-151363600D01*
X120620357Y-151346951D01*
X120651100Y-151192393D01*
X120651100Y-151034807D01*
X120620357Y-150880249D01*
X120613461Y-150863600D01*
X121532855Y-150863600D01*
X121532855Y-150863599D01*
X121522012Y-150781232D01*
X121464335Y-150565979D01*
X121379054Y-150360097D01*
X121379045Y-150360079D01*
X121267635Y-150167108D01*
X121267633Y-150167104D01*
X121131969Y-149990306D01*
X121131962Y-149990298D01*
X120974402Y-149832738D01*
X120974393Y-149832730D01*
X120797595Y-149697066D01*
X120797591Y-149697064D01*
X120604620Y-149585654D01*
X120604602Y-149585645D01*
X120398718Y-149500363D01*
X120183463Y-149442687D01*
X120101100Y-149431842D01*
X120101100Y-150351239D01*
X120084451Y-150344343D01*
X119929893Y-150313600D01*
X119772307Y-150313600D01*
X119617749Y-150344343D01*
X119601100Y-150351239D01*
X119601100Y-149431842D01*
X119601099Y-149431842D01*
X119518736Y-149442687D01*
X119303481Y-149500363D01*
X119097597Y-149585645D01*
X119097579Y-149585654D01*
X118904608Y-149697064D01*
X118904604Y-149697066D01*
X118727806Y-149832730D01*
X118570230Y-149990306D01*
X118434566Y-150167104D01*
X118434564Y-150167108D01*
X118323154Y-150360079D01*
X118323145Y-150360097D01*
X118238561Y-150564298D01*
X118194719Y-150618702D01*
X118128425Y-150640766D01*
X118060726Y-150623486D01*
X118013116Y-150572349D01*
X118000000Y-150516845D01*
X118000000Y-144147444D01*
X121284100Y-144147444D01*
X121290501Y-144206972D01*
X121290503Y-144206979D01*
X121340745Y-144341686D01*
X121340749Y-144341693D01*
X121426909Y-144456787D01*
X121426912Y-144456790D01*
X121542006Y-144542950D01*
X121542013Y-144542954D01*
X121676720Y-144593196D01*
X121676727Y-144593198D01*
X121736255Y-144599599D01*
X121736272Y-144599600D01*
X121884100Y-144599600D01*
X122384100Y-144599600D01*
X122531928Y-144599600D01*
X122531944Y-144599599D01*
X122591472Y-144593198D01*
X122591479Y-144593196D01*
X122726186Y-144542954D01*
X122726193Y-144542950D01*
X122841287Y-144456790D01*
X122841290Y-144456787D01*
X122927450Y-144341693D01*
X122927454Y-144341686D01*
X122977696Y-144206979D01*
X122977698Y-144206972D01*
X122984099Y-144147444D01*
X122984100Y-144147427D01*
X122984100Y-143934600D01*
X124364100Y-143934600D01*
X124364100Y-149434600D01*
X127981856Y-149434600D01*
X128048895Y-149454285D01*
X128094650Y-149507089D01*
X128104594Y-149576247D01*
X128075569Y-149639803D01*
X128069537Y-149646281D01*
X128056290Y-149659527D01*
X128056286Y-149659532D01*
X127983289Y-149785968D01*
X127983288Y-149785971D01*
X127945500Y-149926999D01*
X127945500Y-150073001D01*
X127972972Y-150175526D01*
X127983288Y-150214028D01*
X127983289Y-150214031D01*
X128056286Y-150340467D01*
X128056288Y-150340470D01*
X128056289Y-150340471D01*
X128159529Y-150443711D01*
X128159530Y-150443712D01*
X128159532Y-150443713D01*
X128206241Y-150470680D01*
X128285971Y-150516712D01*
X128426999Y-150554500D01*
X128427001Y-150554500D01*
X128572999Y-150554500D01*
X128573001Y-150554500D01*
X128714029Y-150516712D01*
X128840471Y-150443711D01*
X128943711Y-150340471D01*
X129016712Y-150214029D01*
X129054500Y-150073001D01*
X129054500Y-149926999D01*
X129016712Y-149785971D01*
X128943711Y-149659529D01*
X128930463Y-149646281D01*
X128896978Y-149584958D01*
X128901962Y-149515266D01*
X128943834Y-149459333D01*
X129009298Y-149434916D01*
X129018144Y-149434600D01*
X131797925Y-149434600D01*
X131864964Y-149454285D01*
X131910719Y-149507089D01*
X131920663Y-149576247D01*
X131891638Y-149639803D01*
X131885606Y-149646281D01*
X131823206Y-149708680D01*
X131823203Y-149708684D01*
X131756437Y-149808605D01*
X131756436Y-149808608D01*
X131710446Y-149919638D01*
X131710444Y-149919646D01*
X131687000Y-150037507D01*
X131687000Y-150037510D01*
X131687000Y-150157690D01*
X131687000Y-150157692D01*
X131686999Y-150157692D01*
X131710444Y-150275553D01*
X131710446Y-150275561D01*
X131756436Y-150386591D01*
X131756437Y-150386594D01*
X131823203Y-150486515D01*
X131823206Y-150486519D01*
X131908180Y-150571493D01*
X131908184Y-150571496D01*
X132008105Y-150638262D01*
X132008107Y-150638262D01*
X132008109Y-150638264D01*
X132119140Y-150684254D01*
X132148003Y-150689995D01*
X132237007Y-150707700D01*
X132237010Y-150707700D01*
X132357194Y-150707700D01*
X132358301Y-150707591D01*
X132358876Y-150707700D01*
X132360560Y-150707700D01*
X132361606Y-150707310D01*
X132394181Y-150714396D01*
X132426947Y-150720611D01*
X132428736Y-150721913D01*
X132429879Y-150722162D01*
X132458133Y-150743313D01*
X132467081Y-150752261D01*
X132500566Y-150813584D01*
X132503400Y-150839942D01*
X132503400Y-152594020D01*
X132483715Y-152661059D01*
X132430911Y-152706814D01*
X132361753Y-152716758D01*
X132335048Y-152707871D01*
X132334499Y-152709346D01*
X132191479Y-152656003D01*
X132191472Y-152656001D01*
X132131944Y-152649600D01*
X131984100Y-152649600D01*
X131984100Y-154749600D01*
X132131928Y-154749600D01*
X132131944Y-154749599D01*
X132191472Y-154743198D01*
X132191479Y-154743196D01*
X132326186Y-154692954D01*
X132326188Y-154692952D01*
X132441286Y-154606790D01*
X132441287Y-154606789D01*
X132480965Y-154553788D01*
X132536899Y-154511917D01*
X132580227Y-154504099D01*
X133209166Y-154504099D01*
X133283401Y-154489334D01*
X133315209Y-154468079D01*
X133381886Y-154447202D01*
X133449266Y-154465686D01*
X133452979Y-154468072D01*
X133478118Y-154484870D01*
X133484799Y-154489334D01*
X133484803Y-154489335D01*
X133509766Y-154494300D01*
X133559033Y-154504100D01*
X133960101Y-154504099D01*
X134027139Y-154523783D01*
X134072894Y-154576587D01*
X134084100Y-154628099D01*
X134084100Y-154647444D01*
X134090501Y-154706972D01*
X134090503Y-154706979D01*
X134140745Y-154841686D01*
X134140749Y-154841693D01*
X134226909Y-154956787D01*
X134226912Y-154956790D01*
X134342006Y-155042950D01*
X134342013Y-155042954D01*
X134476720Y-155093196D01*
X134476727Y-155093198D01*
X134536255Y-155099599D01*
X134536272Y-155099600D01*
X134764100Y-155099600D01*
X135264100Y-155099600D01*
X135491928Y-155099600D01*
X135491944Y-155099599D01*
X135551472Y-155093198D01*
X135551479Y-155093196D01*
X135686186Y-155042954D01*
X135686193Y-155042950D01*
X135801287Y-154956790D01*
X135801290Y-154956787D01*
X135887450Y-154841693D01*
X135887454Y-154841686D01*
X135937696Y-154706979D01*
X135937698Y-154706972D01*
X135944099Y-154647444D01*
X135944100Y-154647427D01*
X135944100Y-153449600D01*
X135264100Y-153449600D01*
X135264100Y-155099600D01*
X134764100Y-155099600D01*
X134764100Y-152949600D01*
X135264100Y-152949600D01*
X135944100Y-152949600D01*
X135944100Y-151751772D01*
X135944099Y-151751755D01*
X135937698Y-151692227D01*
X135937696Y-151692220D01*
X135887454Y-151557513D01*
X135887450Y-151557506D01*
X135801290Y-151442412D01*
X135801287Y-151442409D01*
X135686193Y-151356249D01*
X135686186Y-151356245D01*
X135551479Y-151306003D01*
X135551472Y-151306001D01*
X135491944Y-151299600D01*
X135264100Y-151299600D01*
X135264100Y-152949600D01*
X134764100Y-152949600D01*
X134764100Y-151299600D01*
X134536255Y-151299600D01*
X134476727Y-151306001D01*
X134476720Y-151306003D01*
X134342013Y-151356245D01*
X134342006Y-151356249D01*
X134226912Y-151442409D01*
X134226909Y-151442412D01*
X134140749Y-151557506D01*
X134140745Y-151557513D01*
X134090503Y-151692220D01*
X134090501Y-151692227D01*
X134084100Y-151751755D01*
X134084100Y-152771100D01*
X134064415Y-152838139D01*
X134011611Y-152883894D01*
X133960100Y-152895100D01*
X133559036Y-152895100D01*
X133484798Y-152909866D01*
X133452991Y-152931120D01*
X133386314Y-152951998D01*
X133332602Y-152940819D01*
X133323518Y-152936672D01*
X133283401Y-152909866D01*
X133250442Y-152903310D01*
X133237302Y-152897311D01*
X133221372Y-152883510D01*
X133202697Y-152873742D01*
X133195493Y-152861091D01*
X133184493Y-152851562D01*
X133178553Y-152831343D01*
X133168123Y-152813026D01*
X133164802Y-152784534D01*
X133164800Y-152784525D01*
X133164801Y-152784520D01*
X133164800Y-152784510D01*
X133164800Y-150950718D01*
X136816599Y-150950718D01*
X136855662Y-151147096D01*
X136855664Y-151147102D01*
X136900940Y-151256409D01*
X136932290Y-151332093D01*
X136953342Y-151363600D01*
X137043534Y-151498583D01*
X137185116Y-151640165D01*
X137185119Y-151640167D01*
X137351607Y-151751410D01*
X137536598Y-151828036D01*
X137536602Y-151828036D01*
X137536603Y-151828037D01*
X137732981Y-151867100D01*
X137732984Y-151867100D01*
X137933218Y-151867100D01*
X138097638Y-151834394D01*
X138129602Y-151828036D01*
X138314593Y-151751410D01*
X138481081Y-151640167D01*
X138622667Y-151498581D01*
X138733910Y-151332093D01*
X138810536Y-151147102D01*
X138832325Y-151037561D01*
X138849600Y-150950718D01*
X139356599Y-150950718D01*
X139395662Y-151147096D01*
X139395664Y-151147102D01*
X139440940Y-151256409D01*
X139472290Y-151332093D01*
X139493342Y-151363600D01*
X139583534Y-151498583D01*
X139725116Y-151640165D01*
X139725119Y-151640167D01*
X139891607Y-151751410D01*
X140076598Y-151828036D01*
X140076602Y-151828036D01*
X140076603Y-151828037D01*
X140272981Y-151867100D01*
X140272984Y-151867100D01*
X140473218Y-151867100D01*
X140637638Y-151834394D01*
X140669602Y-151828036D01*
X140854593Y-151751410D01*
X141021081Y-151640167D01*
X141162667Y-151498581D01*
X141273910Y-151332093D01*
X141350536Y-151147102D01*
X141372325Y-151037561D01*
X141389600Y-150950718D01*
X141896599Y-150950718D01*
X141935662Y-151147096D01*
X141935664Y-151147102D01*
X141980940Y-151256409D01*
X142012290Y-151332093D01*
X142033342Y-151363600D01*
X142123534Y-151498583D01*
X142265116Y-151640165D01*
X142265119Y-151640167D01*
X142431607Y-151751410D01*
X142616598Y-151828036D01*
X142616602Y-151828036D01*
X142616603Y-151828037D01*
X142812981Y-151867100D01*
X142812984Y-151867100D01*
X143013218Y-151867100D01*
X143177638Y-151834394D01*
X143209602Y-151828036D01*
X143394593Y-151751410D01*
X143561081Y-151640167D01*
X143702667Y-151498581D01*
X143813910Y-151332093D01*
X143890536Y-151147102D01*
X143912325Y-151037561D01*
X143929600Y-150950718D01*
X144436599Y-150950718D01*
X144475662Y-151147096D01*
X144475664Y-151147102D01*
X144520940Y-151256409D01*
X144552290Y-151332093D01*
X144573342Y-151363600D01*
X144663534Y-151498583D01*
X144805116Y-151640165D01*
X144805119Y-151640167D01*
X144971607Y-151751410D01*
X145156598Y-151828036D01*
X145156602Y-151828036D01*
X145156603Y-151828037D01*
X145352981Y-151867100D01*
X145352984Y-151867100D01*
X145553218Y-151867100D01*
X145717638Y-151834394D01*
X145749602Y-151828036D01*
X145934593Y-151751410D01*
X146101081Y-151640167D01*
X146242667Y-151498581D01*
X146353910Y-151332093D01*
X146430536Y-151147102D01*
X146452325Y-151037561D01*
X146469600Y-150950718D01*
X146469600Y-149226481D01*
X146430537Y-149030103D01*
X146430536Y-149030102D01*
X146430536Y-149030098D01*
X146353910Y-148845107D01*
X146242667Y-148678619D01*
X146242665Y-148678616D01*
X146101083Y-148537034D01*
X146017837Y-148481411D01*
X145934593Y-148425790D01*
X145749602Y-148349164D01*
X145749596Y-148349162D01*
X145553218Y-148310100D01*
X145553216Y-148310100D01*
X145352984Y-148310100D01*
X145352982Y-148310100D01*
X145156603Y-148349162D01*
X145156597Y-148349164D01*
X144971608Y-148425789D01*
X144805116Y-148537034D01*
X144663534Y-148678616D01*
X144552289Y-148845108D01*
X144475664Y-149030097D01*
X144475662Y-149030103D01*
X144436600Y-149226481D01*
X144436600Y-149226484D01*
X144436600Y-150950716D01*
X144436600Y-150950718D01*
X144436599Y-150950718D01*
X143929600Y-150950718D01*
X143929600Y-149226481D01*
X143890537Y-149030103D01*
X143890536Y-149030102D01*
X143890536Y-149030098D01*
X143813910Y-148845107D01*
X143702667Y-148678619D01*
X143702665Y-148678616D01*
X143561083Y-148537034D01*
X143477837Y-148481411D01*
X143394593Y-148425790D01*
X143209602Y-148349164D01*
X143209596Y-148349162D01*
X143013218Y-148310100D01*
X143013216Y-148310100D01*
X142812984Y-148310100D01*
X142812982Y-148310100D01*
X142616603Y-148349162D01*
X142616597Y-148349164D01*
X142431608Y-148425789D01*
X142265116Y-148537034D01*
X142123534Y-148678616D01*
X142012289Y-148845108D01*
X141935664Y-149030097D01*
X141935662Y-149030103D01*
X141896600Y-149226481D01*
X141896600Y-149226484D01*
X141896600Y-150950716D01*
X141896600Y-150950718D01*
X141896599Y-150950718D01*
X141389600Y-150950718D01*
X141389600Y-149226481D01*
X141350537Y-149030103D01*
X141350536Y-149030102D01*
X141350536Y-149030098D01*
X141273910Y-148845107D01*
X141162667Y-148678619D01*
X141162665Y-148678616D01*
X141021083Y-148537034D01*
X140937837Y-148481411D01*
X140854593Y-148425790D01*
X140669602Y-148349164D01*
X140669596Y-148349162D01*
X140473218Y-148310100D01*
X140473216Y-148310100D01*
X140272984Y-148310100D01*
X140272982Y-148310100D01*
X140076603Y-148349162D01*
X140076597Y-148349164D01*
X139891608Y-148425789D01*
X139725116Y-148537034D01*
X139583534Y-148678616D01*
X139472289Y-148845108D01*
X139395664Y-149030097D01*
X139395662Y-149030103D01*
X139356600Y-149226481D01*
X139356600Y-149226484D01*
X139356600Y-150950716D01*
X139356600Y-150950718D01*
X139356599Y-150950718D01*
X138849600Y-150950718D01*
X138849600Y-149226481D01*
X138810537Y-149030103D01*
X138810536Y-149030102D01*
X138810536Y-149030098D01*
X138733910Y-148845107D01*
X138622667Y-148678619D01*
X138622665Y-148678616D01*
X138481083Y-148537034D01*
X138397837Y-148481411D01*
X138314593Y-148425790D01*
X138129602Y-148349164D01*
X138129596Y-148349162D01*
X137933218Y-148310100D01*
X137933216Y-148310100D01*
X137732984Y-148310100D01*
X137732982Y-148310100D01*
X137536603Y-148349162D01*
X137536597Y-148349164D01*
X137351608Y-148425789D01*
X137185116Y-148537034D01*
X137043534Y-148678616D01*
X136932289Y-148845108D01*
X136855664Y-149030097D01*
X136855662Y-149030103D01*
X136816600Y-149226481D01*
X136816600Y-149226484D01*
X136816600Y-150950716D01*
X136816600Y-150950718D01*
X136816599Y-150950718D01*
X133164800Y-150950718D01*
X133164800Y-150705139D01*
X133164801Y-150705126D01*
X133164801Y-150608065D01*
X133164801Y-150608063D01*
X133142264Y-150523955D01*
X133142264Y-150523954D01*
X133098726Y-150448545D01*
X133037155Y-150386974D01*
X133037154Y-150386973D01*
X133032824Y-150382643D01*
X133032813Y-150382633D01*
X132937586Y-150287406D01*
X132904101Y-150226083D01*
X132903651Y-150175530D01*
X132907200Y-150157690D01*
X132907200Y-150037510D01*
X132907200Y-150037507D01*
X132883755Y-149919646D01*
X132883754Y-149919640D01*
X132837764Y-149808609D01*
X132837762Y-149808607D01*
X132837762Y-149808605D01*
X132770996Y-149708684D01*
X132770993Y-149708680D01*
X132708594Y-149646281D01*
X132675109Y-149584958D01*
X132680093Y-149515266D01*
X132721965Y-149459333D01*
X132787429Y-149434916D01*
X132796275Y-149434600D01*
X134364100Y-149434600D01*
X134364100Y-144670109D01*
X134383785Y-144603070D01*
X134436589Y-144557315D01*
X134505747Y-144547371D01*
X134531433Y-144553927D01*
X134636720Y-144593196D01*
X134636727Y-144593198D01*
X134696255Y-144599599D01*
X134696272Y-144599600D01*
X134844100Y-144599600D01*
X135344100Y-144599600D01*
X135491928Y-144599600D01*
X135491944Y-144599599D01*
X135551472Y-144593198D01*
X135551479Y-144593196D01*
X135686186Y-144542954D01*
X135686193Y-144542950D01*
X135801287Y-144456790D01*
X135801290Y-144456787D01*
X135887450Y-144341693D01*
X135887454Y-144341686D01*
X135937696Y-144206979D01*
X135937698Y-144206972D01*
X135944099Y-144147444D01*
X135944100Y-144147427D01*
X135944100Y-143027644D01*
X135963785Y-142960605D01*
X136016589Y-142914850D01*
X136085747Y-142904906D01*
X136149303Y-142933931D01*
X136155781Y-142939963D01*
X136159529Y-142943711D01*
X136285971Y-143016712D01*
X136426999Y-143054500D01*
X136427001Y-143054500D01*
X136572999Y-143054500D01*
X136573001Y-143054500D01*
X136714029Y-143016712D01*
X136840471Y-142943711D01*
X136943711Y-142840471D01*
X137016712Y-142714029D01*
X137054500Y-142573001D01*
X137054500Y-142426999D01*
X137016712Y-142285971D01*
X136943711Y-142159529D01*
X136840471Y-142056289D01*
X136840470Y-142056288D01*
X136840467Y-142056286D01*
X136714031Y-141983289D01*
X136714030Y-141983288D01*
X136714029Y-141983288D01*
X136573001Y-141945500D01*
X136426999Y-141945500D01*
X136285971Y-141983288D01*
X136285968Y-141983289D01*
X136159532Y-142056286D01*
X136159527Y-142056290D01*
X136155781Y-142060037D01*
X136094458Y-142093522D01*
X136024766Y-142088538D01*
X135968833Y-142046666D01*
X135944416Y-141981202D01*
X135944100Y-141972356D01*
X135944100Y-140721772D01*
X135944099Y-140721755D01*
X135937698Y-140662227D01*
X135937696Y-140662220D01*
X135887454Y-140527513D01*
X135887450Y-140527506D01*
X135801290Y-140412412D01*
X135801287Y-140412409D01*
X135686193Y-140326249D01*
X135686186Y-140326245D01*
X135551479Y-140276003D01*
X135551472Y-140276001D01*
X135491944Y-140269600D01*
X135344100Y-140269600D01*
X135344100Y-144599600D01*
X134844100Y-144599600D01*
X134844100Y-140269600D01*
X134696255Y-140269600D01*
X134636727Y-140276001D01*
X134636720Y-140276003D01*
X134502013Y-140326245D01*
X134502006Y-140326249D01*
X134386912Y-140412409D01*
X134386909Y-140412412D01*
X134300749Y-140527506D01*
X134300745Y-140527513D01*
X134250503Y-140662220D01*
X134250501Y-140662227D01*
X134244100Y-140721755D01*
X134244100Y-141560600D01*
X134224415Y-141627639D01*
X134171611Y-141673394D01*
X134120100Y-141684600D01*
X130364100Y-141684600D01*
X130364100Y-143810600D01*
X130344415Y-143877639D01*
X130291611Y-143923394D01*
X130240100Y-143934600D01*
X124364100Y-143934600D01*
X122984100Y-143934600D01*
X122984100Y-142684600D01*
X122384100Y-142684600D01*
X122384100Y-144599600D01*
X121884100Y-144599600D01*
X121884100Y-142684600D01*
X121284100Y-142684600D01*
X121284100Y-144147444D01*
X118000000Y-144147444D01*
X118000000Y-140721755D01*
X121284100Y-140721755D01*
X121284100Y-142184600D01*
X121884100Y-142184600D01*
X122384100Y-142184600D01*
X122984100Y-142184600D01*
X122984100Y-140721772D01*
X122984099Y-140721755D01*
X122977698Y-140662227D01*
X122977696Y-140662220D01*
X122927454Y-140527513D01*
X122927450Y-140527506D01*
X122841290Y-140412412D01*
X122841287Y-140412409D01*
X122726193Y-140326249D01*
X122726186Y-140326245D01*
X122591479Y-140276003D01*
X122591472Y-140276001D01*
X122531944Y-140269600D01*
X122384100Y-140269600D01*
X122384100Y-142184600D01*
X121884100Y-142184600D01*
X121884100Y-140269600D01*
X121736255Y-140269600D01*
X121676727Y-140276001D01*
X121676720Y-140276003D01*
X121542013Y-140326245D01*
X121542006Y-140326249D01*
X121426912Y-140412409D01*
X121426909Y-140412412D01*
X121340749Y-140527506D01*
X121340745Y-140527513D01*
X121290503Y-140662220D01*
X121290501Y-140662227D01*
X121284100Y-140721755D01*
X118000000Y-140721755D01*
X118000000Y-139624000D01*
X118019685Y-139556961D01*
X118072489Y-139511206D01*
X118124000Y-139500000D01*
X123952900Y-139500000D01*
X124019939Y-139519685D01*
G37*
%TD.AperFunction*%
%TD*%
M02*
