M48
; DRILL file {KiCad 9.0.6-9.0.6~ubuntu22.04.1} date 2025-12-28T19:29:29-0800
; FORMAT={-:-/ absolute / metric / decimal}
; #@! TF.CreationDate,2025-12-28T19:29:29-08:00
; #@! TF.GenerationSoftware,Kicad,Pcbnew,9.0.6-9.0.6~ubuntu22.04.1
; #@! TF.FileFunction,Plated,1,4,PTH
FMAT,2
METRIC
; #@! TA.AperFunction,Plated,PTH,ViaDrill
T1C0.300
; #@! TA.AperFunction,Plated,PTH,ViaDrill
T2C0.305
; #@! TA.AperFunction,Plated,PTH,ComponentDrill
T3C0.760
; #@! TA.AperFunction,Plated,PTH,ComponentDrill
T4C0.800
; #@! TA.AperFunction,Plated,PTH,ComponentDrill
T5C0.900
; #@! TA.AperFunction,Plated,PTH,ComponentDrill
T6C1.000
; #@! TA.AperFunction,Plated,PTH,ComponentDrill
T7C1.016
; #@! TA.AperFunction,Plated,PTH,ComponentDrill
T8C1.040
; #@! TA.AperFunction,Plated,PTH,ComponentDrill
T9C1.600
%
G90
G05
T1
X120.8Y-126.0
X120.8Y-131.6
X122.0Y-73.0
X122.0Y-140.0
X122.5Y-70.5
X122.5Y-135.3
X123.0Y-136.3
X123.4Y-126.0
X123.4Y-131.6
X126.0Y-126.0
X126.0Y-131.6
X126.5Y-136.3
X128.5Y-142.5
X128.5Y-150.0
X128.6Y-126.0
X128.6Y-131.6
X129.0Y-87.0
X129.0Y-93.0
X129.5Y-136.3
X133.0Y-87.0
X133.0Y-93.0
X133.4Y-90.6
X133.5Y-83.0
X133.5Y-89.0
X134.0Y-70.5
X134.5Y-73.0
X135.0Y-76.0
X136.2Y-86.6
X136.5Y-133.3
X136.5Y-142.5
X136.55Y-130.35
X138.0Y-76.0
X138.0Y-131.3
X139.0Y-73.0
X139.0Y-133.3
X141.5Y-70.0
X142.375Y-133.175
X143.0Y-87.0
X143.0Y-93.0
X143.1Y-105.4
X145.3Y-105.3
X145.5Y-133.3
X146.8Y-108.5
X147.0Y-87.0
X147.0Y-93.0
X147.5Y-83.0
X147.5Y-89.0
X147.6Y-84.2
X148.0Y-133.8
X148.5Y-135.8
X148.5Y-136.8
X148.5Y-137.8
X148.8Y-93.0
X149.8Y-90.0
X150.2Y-140.0
X150.6Y-91.4
X152.0Y-70.0
X152.5Y-72.5
X152.5Y-100.4
X154.2Y-92.2
X154.25Y-100.5
X155.8Y-93.0
X158.2Y-143.0
X159.0Y-68.4
X159.8Y-90.5
X160.0Y-127.5
X160.1Y-81.0
X160.1Y-83.0
X160.5Y-60.0
X160.5Y-61.0
X160.5Y-69.5
X161.0Y-68.4
X161.0Y-70.75
X161.0Y-78.0
X161.0Y-90.4
X161.0Y-118.4
X161.0Y-122.5
X161.25Y-86.25
X162.5Y-95.0
X162.5Y-98.75
X162.6Y-103.4
X163.0Y-78.0
X163.75Y-91.5
X164.0Y-67.4
X164.0Y-71.75
X164.4Y-69.4
X164.5Y-60.0
X164.7Y-66.7
X164.7Y-76.4
X164.75Y-73.0
X165.4Y-96.8
X165.4Y-128.4
X165.5Y-94.25
X166.0Y-129.2
X166.2Y-70.6
X166.713Y-90.287
X166.75Y-101.75
X167.309Y-84.909
X167.5Y-63.0
X167.5Y-86.25
X168.2Y-98.2
X171.713Y-101.962
X172.75Y-99.0
X172.8Y-92.8
X172.8Y-95.0
X172.8Y-97.0
X173.0Y-63.0
X173.0Y-73.0
X173.5Y-115.6
X174.5Y-65.5
X174.5Y-75.5
X174.6Y-85.0
X174.8Y-82.0
X174.8Y-98.4
X174.8Y-116.6
X175.4Y-84.2
X176.2Y-83.4
X176.25Y-73.5
X176.25Y-82.0
X176.5Y-63.5
X176.5Y-65.5
X176.5Y-75.5
X176.987Y-100.8
X177.088Y-94.8
X177.088Y-96.8
T2
X124.423Y-140.192
X127.471Y-152.13
X127.471Y-154.924
X128.487Y-151.545
X129.503Y-155.178
X130.519Y-150.86
X132.297Y-150.098
X136.615Y-154.416
X163.539Y-146.542
X171.921Y-138.16
X171.921Y-144.256
T3
X124.83Y-62.0
X126.1Y-64.54
X127.37Y-62.0
X128.64Y-64.54
X129.91Y-62.0
X131.18Y-64.54
X144.85Y-62.0
X146.12Y-64.54
X147.39Y-62.0
X148.66Y-64.54
X149.93Y-62.0
X151.2Y-64.54
T4
X125.5Y-79.92
X125.5Y-82.46
X125.5Y-85.0
X125.5Y-87.54
X125.5Y-90.08
X125.5Y-92.62
X125.5Y-95.16
X125.5Y-107.86
X125.5Y-110.4
X125.5Y-112.94
X125.5Y-115.48
X125.5Y-118.02
X125.5Y-120.56
X125.5Y-123.1
X140.0Y-79.92
X140.0Y-82.46
X140.0Y-85.0
X140.0Y-87.54
X140.0Y-90.08
X140.0Y-92.62
X140.0Y-95.16
X140.0Y-107.86
X140.0Y-110.4
X140.0Y-112.94
X140.0Y-115.48
X140.0Y-118.02
X140.0Y-120.56
X140.0Y-123.1
T5
X172.683Y-153.014
X172.683Y-155.554
X175.223Y-153.014
X175.223Y-155.554
T6
X154.197Y-151.916
X155.447Y-154.416
X159.947Y-154.416
X161.197Y-151.916
X163.087Y-151.916
X164.337Y-154.416
X168.837Y-154.416
X170.087Y-151.916
T7
X137.833Y-150.089
X140.373Y-150.089
X142.913Y-150.089
X145.453Y-150.089
T8
X152.363Y-112.558
X152.363Y-115.098
X152.363Y-117.638
X152.363Y-120.178
X152.363Y-122.718
X152.363Y-125.258
X152.363Y-127.798
X152.363Y-130.338
X152.363Y-132.878
X152.363Y-135.418
X152.363Y-137.958
X152.363Y-140.498
X152.363Y-143.038
X152.363Y-145.578
X152.363Y-148.118
X152.363Y-150.658
X152.363Y-153.198
X152.363Y-155.738
X152.363Y-158.278
X177.763Y-112.558
X177.763Y-115.098
X177.763Y-117.638
X177.763Y-120.178
X177.763Y-122.718
X177.763Y-125.258
X177.763Y-127.798
X177.763Y-130.338
X177.763Y-132.878
X177.763Y-135.418
X177.763Y-137.958
X177.763Y-140.498
X177.763Y-143.038
X177.763Y-145.578
X177.763Y-148.118
X177.763Y-150.658
X177.763Y-153.198
X177.763Y-155.738
X177.763Y-158.278
T9
X119.851Y-151.114
M30
