%TF.GenerationSoftware,KiCad,Pcbnew,9.0.6-9.0.6~ubuntu22.04.1*%
%TF.CreationDate,2025-12-28T19:28:58-08:00*%
%TF.ProjectId,tool2,746f6f6c-322e-46b6-9963-61645f706362,rev?*%
%TF.SameCoordinates,Original*%
%TF.FileFunction,Soldermask,Top*%
%TF.FilePolarity,Negative*%
%FSLAX46Y46*%
G04 Gerber Fmt 4.6, Leading zero omitted, Abs format (unit mm)*
G04 Created by KiCad (PCBNEW 9.0.6-9.0.6~ubuntu22.04.1) date 2025-12-28 19:28:58*
%MOMM*%
%LPD*%
G01*
G04 APERTURE LIST*
G04 Aperture macros list*
%AMRoundRect*
0 Rectangle with rounded corners*
0 $1 Rounding radius*
0 $2 $3 $4 $5 $6 $7 $8 $9 X,Y pos of 4 corners*
0 Add a 4 corners polygon primitive as box body*
4,1,4,$2,$3,$4,$5,$6,$7,$8,$9,$2,$3,0*
0 Add four circle primitives for the rounded corners*
1,1,$1+$1,$2,$3*
1,1,$1+$1,$4,$5*
1,1,$1+$1,$6,$7*
1,1,$1+$1,$8,$9*
0 Add four rect primitives between the rounded corners*
20,1,$1+$1,$2,$3,$4,$5,0*
20,1,$1+$1,$4,$5,$6,$7,0*
20,1,$1+$1,$6,$7,$8,$9,0*
20,1,$1+$1,$8,$9,$2,$3,0*%
G04 Aperture macros list end*
%ADD10C,1.600000*%
%ADD11C,0.152400*%
%ADD12RoundRect,0.250000X-0.650000X0.412500X-0.650000X-0.412500X0.650000X-0.412500X0.650000X0.412500X0*%
%ADD13RoundRect,0.101600X-0.780000X-0.780000X0.780000X-0.780000X0.780000X0.780000X-0.780000X0.780000X0*%
%ADD14C,1.763200*%
%ADD15C,1.703200*%
%ADD16RoundRect,0.100000X-0.637500X-0.100000X0.637500X-0.100000X0.637500X0.100000X-0.637500X0.100000X0*%
%ADD17O,2.000000X1.200000*%
%ADD18RoundRect,0.101600X0.550000X0.500000X-0.550000X0.500000X-0.550000X-0.500000X0.550000X-0.500000X0*%
%ADD19RoundRect,0.101600X-0.550000X-0.500000X0.550000X-0.500000X0.550000X0.500000X-0.550000X0.500000X0*%
%ADD20C,1.553200*%
%ADD21RoundRect,0.250000X0.650000X-0.412500X0.650000X0.412500X-0.650000X0.412500X-0.650000X-0.412500X0*%
%ADD22RoundRect,0.225000X0.225000X0.375000X-0.225000X0.375000X-0.225000X-0.375000X0.225000X-0.375000X0*%
%ADD23RoundRect,0.101600X0.500000X-0.550000X0.500000X0.550000X-0.500000X0.550000X-0.500000X-0.550000X0*%
%ADD24RoundRect,0.101600X-0.500000X0.550000X-0.500000X-0.550000X0.500000X-0.550000X0.500000X0.550000X0*%
%ADD25RoundRect,0.250000X-0.412500X-0.650000X0.412500X-0.650000X0.412500X0.650000X-0.412500X0.650000X0*%
%ADD26C,2.603200*%
%ADD27O,1.727200X3.251200*%
%ADD28RoundRect,0.250000X0.250000X0.475000X-0.250000X0.475000X-0.250000X-0.475000X0.250000X-0.475000X0*%
%ADD29RoundRect,0.225000X-0.225000X-0.375000X0.225000X-0.375000X0.225000X0.375000X-0.225000X0.375000X0*%
%ADD30RoundRect,0.150000X0.512500X0.150000X-0.512500X0.150000X-0.512500X-0.150000X0.512500X-0.150000X0*%
%ADD31RoundRect,0.375000X-0.375000X0.625000X-0.375000X-0.625000X0.375000X-0.625000X0.375000X0.625000X0*%
%ADD32RoundRect,0.500000X-1.400000X0.500000X-1.400000X-0.500000X1.400000X-0.500000X1.400000X0.500000X0*%
%ADD33RoundRect,0.250000X-0.475000X0.250000X-0.475000X-0.250000X0.475000X-0.250000X0.475000X0.250000X0*%
%ADD34RoundRect,0.250000X-0.900000X1.000000X-0.900000X-1.000000X0.900000X-1.000000X0.900000X1.000000X0*%
%ADD35C,3.250000*%
%ADD36RoundRect,0.250000X0.510000X0.510000X-0.510000X0.510000X-0.510000X-0.510000X0.510000X-0.510000X0*%
%ADD37C,1.520000*%
G04 APERTURE END LIST*
D10*
X119075100Y-154279600D02*
G75*
G02*
X117475100Y-154279600I-800000J0D01*
G01*
X117475100Y-154279600D02*
G75*
G02*
X119075100Y-154279600I800000J0D01*
G01*
X119301100Y-60003600D02*
G75*
G02*
X117701100Y-60003600I-800000J0D01*
G01*
X117701100Y-60003600D02*
G75*
G02*
X119301100Y-60003600I800000J0D01*
G01*
D11*
X122270377Y-144022787D02*
X122352624Y-144022787D01*
X122352624Y-144022787D02*
X122434872Y-144063911D01*
X122434872Y-144063911D02*
X122475996Y-144105035D01*
X122475996Y-144105035D02*
X122517120Y-144187283D01*
X122517120Y-144187283D02*
X122558243Y-144351778D01*
X122558243Y-144351778D02*
X122558243Y-144557397D01*
X122558243Y-144557397D02*
X122517120Y-144721892D01*
X122517120Y-144721892D02*
X122475996Y-144804140D01*
X122475996Y-144804140D02*
X122434872Y-144845264D01*
X122434872Y-144845264D02*
X122352624Y-144886387D01*
X122352624Y-144886387D02*
X122270377Y-144886387D01*
X122270377Y-144886387D02*
X122188129Y-144845264D01*
X122188129Y-144845264D02*
X122147005Y-144804140D01*
X122147005Y-144804140D02*
X122105882Y-144721892D01*
X122105882Y-144721892D02*
X122064758Y-144557397D01*
X122064758Y-144557397D02*
X122064758Y-144351778D01*
X122064758Y-144351778D02*
X122105882Y-144187283D01*
X122105882Y-144187283D02*
X122147005Y-144105035D01*
X122147005Y-144105035D02*
X122188129Y-144063911D01*
X122188129Y-144063911D02*
X122270377Y-144022787D01*
X123092853Y-144022787D02*
X123175100Y-144022787D01*
X123175100Y-144022787D02*
X123257348Y-144063911D01*
X123257348Y-144063911D02*
X123298472Y-144105035D01*
X123298472Y-144105035D02*
X123339596Y-144187283D01*
X123339596Y-144187283D02*
X123380719Y-144351778D01*
X123380719Y-144351778D02*
X123380719Y-144557397D01*
X123380719Y-144557397D02*
X123339596Y-144721892D01*
X123339596Y-144721892D02*
X123298472Y-144804140D01*
X123298472Y-144804140D02*
X123257348Y-144845264D01*
X123257348Y-144845264D02*
X123175100Y-144886387D01*
X123175100Y-144886387D02*
X123092853Y-144886387D01*
X123092853Y-144886387D02*
X123010605Y-144845264D01*
X123010605Y-144845264D02*
X122969481Y-144804140D01*
X122969481Y-144804140D02*
X122928358Y-144721892D01*
X122928358Y-144721892D02*
X122887234Y-144557397D01*
X122887234Y-144557397D02*
X122887234Y-144351778D01*
X122887234Y-144351778D02*
X122928358Y-144187283D01*
X122928358Y-144187283D02*
X122969481Y-144105035D01*
X122969481Y-144105035D02*
X123010605Y-144063911D01*
X123010605Y-144063911D02*
X123092853Y-144022787D01*
X124203195Y-144886387D02*
X123709710Y-144886387D01*
X123956453Y-144886387D02*
X123956453Y-144022787D01*
X123956453Y-144022787D02*
X123874205Y-144146159D01*
X123874205Y-144146159D02*
X123791957Y-144228406D01*
X123791957Y-144228406D02*
X123709710Y-144269530D01*
D12*
%TO.C,C37*%
X120800000Y-127237500D03*
X120800000Y-130362500D03*
%TD*%
%TO.C,C36*%
X128600000Y-127237500D03*
X128600000Y-130362500D03*
%TD*%
%TO.C,C35*%
X126000000Y-127237500D03*
X126000000Y-130362500D03*
%TD*%
%TO.C,C34*%
X123400000Y-127237500D03*
X123400000Y-130362500D03*
%TD*%
D13*
%TO.C,U1*%
X152363100Y-112557600D03*
D14*
X152363100Y-115097600D03*
X152363100Y-117637600D03*
X152363100Y-120177600D03*
X152363100Y-122717600D03*
X152363100Y-125257600D03*
X152363100Y-127797600D03*
X152363100Y-130337600D03*
X152363100Y-132877600D03*
X152363100Y-135417600D03*
X152363100Y-137957600D03*
X152363100Y-140497600D03*
X152363100Y-143037600D03*
X152363100Y-145577600D03*
X152363100Y-148117600D03*
X152363100Y-150657600D03*
X152363100Y-153197600D03*
X152363100Y-155737600D03*
X152363100Y-158277600D03*
X177763100Y-112557600D03*
X177763100Y-115097600D03*
X177763100Y-117637600D03*
X177763100Y-120177600D03*
X177763100Y-122717600D03*
X177763100Y-125257600D03*
X177763100Y-127797600D03*
X177763100Y-130337600D03*
X177763100Y-132877600D03*
X177763100Y-135417600D03*
X177763100Y-137957600D03*
X177763100Y-140497600D03*
X177763100Y-143037600D03*
X177763100Y-145577600D03*
X177763100Y-148117600D03*
X177763100Y-150657600D03*
X177763100Y-153197600D03*
X177763100Y-155737600D03*
X177763100Y-158277600D03*
%TD*%
D15*
%TO.C,SW1*%
X168837100Y-154415600D03*
X164337100Y-154415600D03*
X170087100Y-151915600D03*
X163087100Y-151915600D03*
%TD*%
%TO.C,SW2*%
X159947100Y-154415600D03*
X155447100Y-154415600D03*
X161197100Y-151915600D03*
X154197100Y-151915600D03*
%TD*%
D16*
%TO.C,U3*%
X171862500Y-61725000D03*
X171862500Y-62375000D03*
X171862500Y-63025000D03*
X171862500Y-63675000D03*
X171862500Y-64325000D03*
X171862500Y-64975000D03*
X171862500Y-65625000D03*
X171862500Y-66275000D03*
X166137500Y-66275000D03*
X166137500Y-65625000D03*
X166137500Y-64975000D03*
X166137500Y-64325000D03*
X166137500Y-63675000D03*
X166137500Y-63025000D03*
X166137500Y-62375000D03*
X166137500Y-61725000D03*
%TD*%
%TO.C,U5*%
X171862500Y-71725000D03*
X171862500Y-72375000D03*
X171862500Y-73025000D03*
X171862500Y-73675000D03*
X171862500Y-74325000D03*
X171862500Y-74975000D03*
X171862500Y-75625000D03*
X171862500Y-76275000D03*
X166137500Y-76275000D03*
X166137500Y-75625000D03*
X166137500Y-74975000D03*
X166137500Y-74325000D03*
X166137500Y-73675000D03*
X166137500Y-73025000D03*
X166137500Y-72375000D03*
X166137500Y-71725000D03*
%TD*%
D17*
%TO.C,U6*%
X140000000Y-123100000D03*
X140000000Y-120560000D03*
X140000000Y-118020000D03*
X140000000Y-115480000D03*
X140000000Y-112940000D03*
X140000000Y-110400000D03*
X140000000Y-107860000D03*
X140000000Y-95160000D03*
X140000000Y-92620000D03*
X140000000Y-90080000D03*
X140000000Y-87540000D03*
X140000000Y-85000000D03*
X140000000Y-82460000D03*
X140000000Y-79920000D03*
%TD*%
D16*
%TO.C,U7*%
X171862500Y-81725000D03*
X171862500Y-82375000D03*
X171862500Y-83025000D03*
X171862500Y-83675000D03*
X171862500Y-84325000D03*
X171862500Y-84975000D03*
X171862500Y-85625000D03*
X171862500Y-86275000D03*
X166137500Y-86275000D03*
X166137500Y-85625000D03*
X166137500Y-84975000D03*
X166137500Y-84325000D03*
X166137500Y-83675000D03*
X166137500Y-83025000D03*
X166137500Y-82375000D03*
X166137500Y-81725000D03*
%TD*%
D17*
%TO.C,U9*%
X125500000Y-123100000D03*
X125500000Y-120560000D03*
X125500000Y-118020000D03*
X125500000Y-115480000D03*
X125500000Y-112940000D03*
X125500000Y-110400000D03*
X125500000Y-107860000D03*
X125500000Y-95160000D03*
X125500000Y-92620000D03*
X125500000Y-90080000D03*
X125500000Y-87540000D03*
X125500000Y-85000000D03*
X125500000Y-82460000D03*
X125500000Y-79920000D03*
%TD*%
D18*
%TO.C,R24*%
X171712500Y-100925000D03*
X170012500Y-100925000D03*
%TD*%
D19*
%TO.C,C33*%
X174650000Y-74500000D03*
X176350000Y-74500000D03*
%TD*%
%TO.C,C31*%
X174650000Y-64500000D03*
X176350000Y-64500000D03*
%TD*%
%TO.C,R43*%
X173103100Y-134095600D03*
X174803100Y-134095600D03*
%TD*%
D18*
%TO.C,R12*%
X174803100Y-142223600D03*
X173103100Y-142223600D03*
%TD*%
D20*
%TO.C,D1*%
X172683100Y-155553600D03*
X172683100Y-153013600D03*
X175223100Y-155553600D03*
X175223100Y-153013600D03*
%TD*%
D18*
%TO.C,C16*%
X163350000Y-69500000D03*
X161650000Y-69500000D03*
%TD*%
D12*
%TO.C,C6*%
X128000000Y-133175000D03*
X128000000Y-136300000D03*
%TD*%
D19*
%TO.C,R16*%
X174100000Y-100925000D03*
X175800000Y-100925000D03*
%TD*%
D18*
%TO.C,C20*%
X157712500Y-96925000D03*
X156012500Y-96925000D03*
%TD*%
D21*
%TO.C,C4*%
X144000000Y-136300000D03*
X144000000Y-133175000D03*
%TD*%
D18*
%TO.C,R22*%
X171712500Y-94925000D03*
X170012500Y-94925000D03*
%TD*%
D22*
%TO.C,D9*%
X151150000Y-72500000D03*
X147850000Y-72500000D03*
%TD*%
D19*
%TO.C,R49*%
X158150000Y-122500000D03*
X159850000Y-122500000D03*
%TD*%
%TO.C,R45*%
X173103100Y-130031600D03*
X174803100Y-130031600D03*
%TD*%
D22*
%TO.C,D2*%
X126800000Y-70500000D03*
X123500000Y-70500000D03*
%TD*%
D23*
%TO.C,R28*%
X163000000Y-73350000D03*
X163000000Y-71650000D03*
%TD*%
D19*
%TO.C,R5*%
X174650000Y-72500000D03*
X176350000Y-72500000D03*
%TD*%
%TO.C,R6*%
X146150000Y-67500000D03*
X147850000Y-67500000D03*
%TD*%
D24*
%TO.C,C8*%
X121500000Y-133950000D03*
X121500000Y-135650000D03*
%TD*%
D19*
%TO.C,C29*%
X130150000Y-87000000D03*
X131850000Y-87000000D03*
%TD*%
D25*
%TO.C,C21*%
X162300000Y-101925000D03*
X165425000Y-101925000D03*
%TD*%
D18*
%TO.C,C13*%
X163350000Y-60000000D03*
X161650000Y-60000000D03*
%TD*%
D26*
%TO.C,TP7*%
X119851100Y-151113600D03*
%TD*%
D27*
%TO.C,JP3*%
X137833100Y-150088600D03*
X140373100Y-150088600D03*
X142913100Y-150088600D03*
X145453100Y-150088600D03*
%TD*%
D28*
%TO.C,C17*%
X157812500Y-94250000D03*
X155912500Y-94250000D03*
%TD*%
D19*
%TO.C,R31*%
X155323100Y-143000000D03*
X157023100Y-143000000D03*
%TD*%
D24*
%TO.C,C12*%
X159000000Y-75150000D03*
X159000000Y-76850000D03*
%TD*%
D23*
%TO.C,R20*%
X122645100Y-151328600D03*
X122645100Y-149628600D03*
%TD*%
D19*
%TO.C,R4*%
X174650000Y-62500000D03*
X176350000Y-62500000D03*
%TD*%
%TO.C,R3*%
X127650000Y-68000000D03*
X129350000Y-68000000D03*
%TD*%
D24*
%TO.C,C25*%
X159000000Y-65650000D03*
X159000000Y-67350000D03*
%TD*%
D29*
%TO.C,D6*%
X123500000Y-73000000D03*
X126800000Y-73000000D03*
%TD*%
D18*
%TO.C,R41*%
X162850000Y-81000000D03*
X161150000Y-81000000D03*
%TD*%
D19*
%TO.C,R61*%
X173103100Y-136127600D03*
X174803100Y-136127600D03*
%TD*%
%TO.C,R34*%
X173103100Y-117585600D03*
X174803100Y-117585600D03*
%TD*%
D18*
%TO.C,R15*%
X158801100Y-146541600D03*
X157101100Y-146541600D03*
%TD*%
%TO.C,R10*%
X174803100Y-146287600D03*
X173103100Y-146287600D03*
%TD*%
D19*
%TO.C,R47*%
X158150000Y-124500000D03*
X159850000Y-124500000D03*
%TD*%
D12*
%TO.C,C7*%
X124650000Y-133175000D03*
X124650000Y-136300000D03*
%TD*%
D18*
%TO.C,R8*%
X174803100Y-148319600D03*
X173103100Y-148319600D03*
%TD*%
D19*
%TO.C,C27*%
X144150000Y-87000000D03*
X145850000Y-87000000D03*
%TD*%
%TO.C,C32*%
X127637100Y-153653600D03*
X129337100Y-153653600D03*
%TD*%
D23*
%TO.C,C5*%
X147000000Y-135500000D03*
X147000000Y-133800000D03*
%TD*%
D30*
%TO.C,U12*%
X132137500Y-84950000D03*
X132137500Y-84000000D03*
X132137500Y-83050000D03*
X129862500Y-83050000D03*
X129862500Y-84950000D03*
%TD*%
D18*
%TO.C,R33*%
X162850000Y-85000000D03*
X161150000Y-85000000D03*
%TD*%
D29*
%TO.C,D10*%
X147850000Y-70000000D03*
X151150000Y-70000000D03*
%TD*%
D19*
%TO.C,R17*%
X174200000Y-94925000D03*
X175900000Y-94925000D03*
%TD*%
%TO.C,R14*%
X152512500Y-95425000D03*
X154212500Y-95425000D03*
%TD*%
%TO.C,C44*%
X160657100Y-146541600D03*
X162357100Y-146541600D03*
%TD*%
D23*
%TO.C,R37*%
X140298100Y-154503600D03*
X140298100Y-152803600D03*
%TD*%
D18*
%TO.C,C10*%
X174803100Y-138159600D03*
X173103100Y-138159600D03*
%TD*%
%TO.C,R25*%
X171712500Y-98925000D03*
X170012500Y-98925000D03*
%TD*%
D19*
%TO.C,C14*%
X161012500Y-91425000D03*
X162712500Y-91425000D03*
%TD*%
D24*
%TO.C,R30*%
X163000000Y-65650000D03*
X163000000Y-67350000D03*
%TD*%
D19*
%TO.C,C28*%
X144150000Y-93000000D03*
X145850000Y-93000000D03*
%TD*%
D24*
%TO.C,R1*%
X163000000Y-62150000D03*
X163000000Y-63850000D03*
%TD*%
D18*
%TO.C,R39*%
X149403100Y-150986600D03*
X147703100Y-150986600D03*
%TD*%
%TO.C,R62*%
X157023100Y-140445600D03*
X155323100Y-140445600D03*
%TD*%
D22*
%TO.C,D5*%
X132800000Y-73000000D03*
X129500000Y-73000000D03*
%TD*%
D19*
%TO.C,R19*%
X174200000Y-96925000D03*
X175900000Y-96925000D03*
%TD*%
D18*
%TO.C,R40*%
X162850000Y-83000000D03*
X161150000Y-83000000D03*
%TD*%
D19*
%TO.C,R44*%
X173103100Y-132063600D03*
X174803100Y-132063600D03*
%TD*%
D29*
%TO.C,D7*%
X142350000Y-72500000D03*
X145650000Y-72500000D03*
%TD*%
D21*
%TO.C,C1*%
X140650000Y-136300000D03*
X140650000Y-133175000D03*
%TD*%
D18*
%TO.C,R18*%
X157712500Y-100925000D03*
X156012500Y-100925000D03*
%TD*%
D19*
%TO.C,C11*%
X143050000Y-110500000D03*
X144750000Y-110500000D03*
%TD*%
D24*
%TO.C,R13*%
X161000000Y-75150000D03*
X161000000Y-76850000D03*
%TD*%
D30*
%TO.C,U8*%
X146137500Y-84950000D03*
X146137500Y-84000000D03*
X146137500Y-83050000D03*
X143862500Y-83050000D03*
X143862500Y-84950000D03*
%TD*%
D18*
%TO.C,R11*%
X174803100Y-140191600D03*
X173103100Y-140191600D03*
%TD*%
D19*
%TO.C,C3*%
X130150000Y-110500000D03*
X131850000Y-110500000D03*
%TD*%
D23*
%TO.C,C2*%
X159000000Y-63850000D03*
X159000000Y-62150000D03*
%TD*%
D16*
%TO.C,U2*%
X161137500Y-93575000D03*
X161137500Y-94225000D03*
X161137500Y-94875000D03*
X161137500Y-95525000D03*
X161137500Y-96175000D03*
X161137500Y-96825000D03*
X161137500Y-97475000D03*
X161137500Y-98125000D03*
X161137500Y-98775000D03*
X161137500Y-99425000D03*
X166862500Y-99425000D03*
X166862500Y-98775000D03*
X166862500Y-98125000D03*
X166862500Y-97475000D03*
X166862500Y-96825000D03*
X166862500Y-96175000D03*
X166862500Y-95525000D03*
X166862500Y-94875000D03*
X166862500Y-94225000D03*
X166862500Y-93575000D03*
%TD*%
D19*
%TO.C,C22*%
X152512500Y-99425000D03*
X154212500Y-99425000D03*
%TD*%
D23*
%TO.C,R7*%
X163000000Y-76850000D03*
X163000000Y-75150000D03*
%TD*%
D19*
%TO.C,R46*%
X158150000Y-120500000D03*
X159850000Y-120500000D03*
%TD*%
D24*
%TO.C,R27*%
X161000000Y-71650000D03*
X161000000Y-73350000D03*
%TD*%
D18*
%TO.C,R9*%
X158801100Y-148573600D03*
X157101100Y-148573600D03*
%TD*%
D22*
%TO.C,D8*%
X145650000Y-70000000D03*
X142350000Y-70000000D03*
%TD*%
D19*
%TO.C,C23*%
X152512500Y-93425000D03*
X154212500Y-93425000D03*
%TD*%
%TO.C,C30*%
X130150000Y-93000000D03*
X131850000Y-93000000D03*
%TD*%
D18*
%TO.C,C9*%
X174803100Y-144255600D03*
X173103100Y-144255600D03*
%TD*%
%TO.C,R38*%
X149403100Y-153018600D03*
X147703100Y-153018600D03*
%TD*%
D31*
%TO.C,U4*%
X136550000Y-131650000D03*
X134250000Y-131650000D03*
D32*
X134250000Y-137950000D03*
D31*
X131950000Y-131650000D03*
%TD*%
D23*
%TO.C,R2*%
X161000000Y-63850000D03*
X161000000Y-62150000D03*
%TD*%
%TO.C,R36*%
X137758100Y-154503600D03*
X137758100Y-152803600D03*
%TD*%
D18*
%TO.C,R21*%
X171712500Y-96925000D03*
X170012500Y-96925000D03*
%TD*%
%TO.C,R32*%
X162350000Y-144500000D03*
X160650000Y-144500000D03*
%TD*%
D19*
%TO.C,R23*%
X156012500Y-98925000D03*
X157712500Y-98925000D03*
%TD*%
%TO.C,C26*%
X174650000Y-81000000D03*
X176350000Y-81000000D03*
%TD*%
D23*
%TO.C,C24*%
X159000000Y-73350000D03*
X159000000Y-71650000D03*
%TD*%
%TO.C,R29*%
X161000000Y-67350000D03*
X161000000Y-65650000D03*
%TD*%
D18*
%TO.C,C15*%
X166712500Y-91425000D03*
X165012500Y-91425000D03*
%TD*%
D33*
%TO.C,C19*%
X157362500Y-90300000D03*
X157362500Y-92200000D03*
%TD*%
D19*
%TO.C,R48*%
X158150000Y-126500000D03*
X159850000Y-126500000D03*
%TD*%
D30*
%TO.C,U11*%
X132137500Y-90950000D03*
X132137500Y-90000000D03*
X132137500Y-89050000D03*
X129862500Y-89050000D03*
X129862500Y-90950000D03*
%TD*%
%TO.C,U10*%
X146137500Y-90950000D03*
X146137500Y-90000000D03*
X146137500Y-89050000D03*
X143862500Y-89050000D03*
X143862500Y-90950000D03*
%TD*%
D19*
%TO.C,R26*%
X152512500Y-97425000D03*
X154212500Y-97425000D03*
%TD*%
D18*
%TO.C,R42*%
X159850000Y-118400000D03*
X158150000Y-118400000D03*
%TD*%
D19*
%TO.C,C18*%
X170012500Y-92925000D03*
X171712500Y-92925000D03*
%TD*%
D34*
%TO.C,D3*%
X136500000Y-71850000D03*
X136500000Y-76150000D03*
%TD*%
D29*
%TO.C,D4*%
X129500000Y-70500000D03*
X132800000Y-70500000D03*
%TD*%
D35*
%TO.C,J1*%
X133080000Y-55650000D03*
X122920000Y-55650000D03*
D36*
X131180000Y-64540000D03*
D37*
X129910000Y-62000000D03*
X128640000Y-64540000D03*
X127370000Y-62000000D03*
X126100000Y-64540000D03*
X124830000Y-62000000D03*
%TD*%
D35*
%TO.C,J2*%
X153100000Y-55650000D03*
X142940000Y-55650000D03*
D36*
X151200000Y-64540000D03*
D37*
X149930000Y-62000000D03*
X148660000Y-64540000D03*
X147390000Y-62000000D03*
X146120000Y-64540000D03*
X144850000Y-62000000D03*
%TD*%
G36*
X183482794Y-50021906D02*
G01*
X183501100Y-50066100D01*
X183501100Y-159941100D01*
X183482794Y-159985294D01*
X183438600Y-160003600D01*
X181964600Y-160003600D01*
X181920406Y-159985294D01*
X181902100Y-159941100D01*
X181902100Y-50066100D01*
X181920406Y-50021906D01*
X181964600Y-50003600D01*
X183438600Y-50003600D01*
X183482794Y-50021906D01*
G37*
G36*
X127960325Y-144090691D02*
G01*
X128000147Y-144117569D01*
X128065800Y-144139776D01*
X128065797Y-144139776D01*
X128402037Y-144148863D01*
X135615656Y-144148863D01*
X135623788Y-144152231D01*
X135627156Y-144160363D01*
X135627156Y-144619963D01*
X135623788Y-144628095D01*
X135615656Y-144631463D01*
X127957765Y-144631463D01*
X127955570Y-144631252D01*
X127882153Y-144616974D01*
X127879408Y-144616070D01*
X127774612Y-144566217D01*
X127774387Y-144566107D01*
X127582312Y-144469562D01*
X127581612Y-144469179D01*
X127466533Y-144400947D01*
X127462829Y-144397433D01*
X127450770Y-144379341D01*
X127449063Y-144370707D01*
X127449454Y-144370121D01*
X127449275Y-144370076D01*
X127450363Y-144365791D01*
X127450333Y-144365733D01*
X127449519Y-144356969D01*
X127455141Y-144350197D01*
X127455141Y-144350196D01*
X127948527Y-144090050D01*
X127957291Y-144089237D01*
X127960325Y-144090691D01*
G37*
G36*
X126593411Y-143448880D02*
G01*
X126699210Y-143458035D01*
X126700805Y-143458287D01*
X126859483Y-143494905D01*
X126861179Y-143495437D01*
X127030948Y-143563547D01*
X127031298Y-143563694D01*
X127199449Y-143637683D01*
X127205535Y-143644041D01*
X127206291Y-143647434D01*
X127206501Y-143650545D01*
X127203688Y-143658886D01*
X127201030Y-143661129D01*
X126702376Y-143966303D01*
X126696984Y-143967978D01*
X126601050Y-143973082D01*
X126598671Y-143972961D01*
X126507802Y-143958825D01*
X126507794Y-143958824D01*
X126417705Y-143954823D01*
X126417694Y-143954823D01*
X126277044Y-143962860D01*
X126166639Y-143985734D01*
X126012490Y-144057805D01*
X126012483Y-144057809D01*
X125909217Y-144129302D01*
X125909216Y-144129303D01*
X125851428Y-144201039D01*
X125778875Y-144291730D01*
X125711795Y-144404868D01*
X125711792Y-144404874D01*
X125661426Y-144535821D01*
X125620237Y-144649343D01*
X125620233Y-144649357D01*
X125598176Y-144793729D01*
X125593130Y-144911772D01*
X125589090Y-145088609D01*
X125589091Y-145088612D01*
X125602108Y-145205792D01*
X125639353Y-145355772D01*
X125639352Y-145355772D01*
X125688666Y-145495664D01*
X125756909Y-145631148D01*
X125855906Y-145766143D01*
X125855909Y-145766146D01*
X125994976Y-145879202D01*
X125994988Y-145879211D01*
X126108702Y-145942052D01*
X126108705Y-145942053D01*
X126251208Y-145986899D01*
X126441939Y-145995932D01*
X126441947Y-145995932D01*
X126615492Y-145985960D01*
X126677797Y-145955300D01*
X126686581Y-145954731D01*
X126689050Y-145955917D01*
X127208443Y-146286535D01*
X127213494Y-146293743D01*
X127211969Y-146302411D01*
X127207959Y-146306229D01*
X127132981Y-146348924D01*
X127131132Y-146349770D01*
X126938975Y-146417889D01*
X126938203Y-146418133D01*
X126787736Y-146459816D01*
X126786785Y-146460036D01*
X126640348Y-146487492D01*
X126638687Y-146487680D01*
X126408943Y-146496829D01*
X126408137Y-146496833D01*
X126206784Y-146490730D01*
X126204198Y-146490354D01*
X125984519Y-146432383D01*
X125982694Y-146431733D01*
X125781337Y-146340209D01*
X125779578Y-146339215D01*
X125619914Y-146229382D01*
X125618805Y-146228514D01*
X125458107Y-146086124D01*
X125456165Y-146083896D01*
X125346322Y-145919130D01*
X125345919Y-145918478D01*
X125259504Y-145768014D01*
X125258794Y-145766546D01*
X125194735Y-145605895D01*
X125194390Y-145604902D01*
X125116118Y-145340609D01*
X125115796Y-145339203D01*
X125075129Y-145091124D01*
X125074978Y-145089264D01*
X125074978Y-144906221D01*
X125075059Y-144904856D01*
X125097424Y-144717806D01*
X125097530Y-144717108D01*
X125131082Y-144533082D01*
X125131510Y-144531434D01*
X125207758Y-144307770D01*
X125208176Y-144306718D01*
X125295612Y-144114565D01*
X125296453Y-144113036D01*
X125398143Y-143957448D01*
X125398967Y-143956339D01*
X125549450Y-143777387D01*
X125550877Y-143775964D01*
X125687197Y-143662025D01*
X125689160Y-143660702D01*
X125826455Y-143587477D01*
X125827048Y-143587182D01*
X125946059Y-143532256D01*
X125948089Y-143531541D01*
X126094537Y-143494926D01*
X126094717Y-143494883D01*
X126273645Y-143453201D01*
X126276106Y-143452902D01*
X126592272Y-143448838D01*
X126593411Y-143448880D01*
G37*
G36*
X115081794Y-50021906D02*
G01*
X115100100Y-50066100D01*
X115100100Y-159941100D01*
X115081794Y-159985294D01*
X115037600Y-160003600D01*
X113563600Y-160003600D01*
X113519406Y-159985294D01*
X113501100Y-159941100D01*
X113501100Y-50066100D01*
X113519406Y-50021906D01*
X113563600Y-50003600D01*
X115037600Y-50003600D01*
X115081794Y-50021906D01*
G37*
G36*
X129878307Y-145304375D02*
G01*
X129881675Y-145312507D01*
X129881675Y-145803600D01*
X129878307Y-145811732D01*
X129870175Y-145815100D01*
X128369466Y-145815100D01*
X128087226Y-145820160D01*
X128087210Y-145820162D01*
X128021662Y-145832881D01*
X128021658Y-145832883D01*
X127949285Y-145865047D01*
X127940486Y-145865271D01*
X127939094Y-145864626D01*
X127447645Y-145595647D01*
X127441290Y-145595647D01*
X127433158Y-145592279D01*
X127429790Y-145584147D01*
X127433158Y-145576015D01*
X127435592Y-145574158D01*
X127590511Y-145485779D01*
X127699998Y-145412791D01*
X127702357Y-145411585D01*
X127898649Y-145338355D01*
X127899968Y-145337952D01*
X128051555Y-145301329D01*
X128054256Y-145301007D01*
X129870175Y-145301007D01*
X129878307Y-145304375D01*
G37*
M02*
