%TF.GenerationSoftware,KiCad,Pcbnew,9.0.6-9.0.6~ubuntu22.04.1*%
%TF.CreationDate,2025-12-28T19:28:58-08:00*%
%TF.ProjectId,tool2,746f6f6c-322e-46b6-9963-61645f706362,rev?*%
%TF.SameCoordinates,Original*%
%TF.FileFunction,Paste,Top*%
%TF.FilePolarity,Positive*%
%FSLAX46Y46*%
G04 Gerber Fmt 4.6, Leading zero omitted, Abs format (unit mm)*
G04 Created by KiCad (PCBNEW 9.0.6-9.0.6~ubuntu22.04.1) date 2025-12-28 19:28:58*
%MOMM*%
%LPD*%
G01*
G04 APERTURE LIST*
G04 Aperture macros list*
%AMRoundRect*
0 Rectangle with rounded corners*
0 $1 Rounding radius*
0 $2 $3 $4 $5 $6 $7 $8 $9 X,Y pos of 4 corners*
0 Add a 4 corners polygon primitive as box body*
4,1,4,$2,$3,$4,$5,$6,$7,$8,$9,$2,$3,0*
0 Add four circle primitives for the rounded corners*
1,1,$1+$1,$2,$3*
1,1,$1+$1,$4,$5*
1,1,$1+$1,$6,$7*
1,1,$1+$1,$8,$9*
0 Add four rect primitives between the rounded corners*
20,1,$1+$1,$2,$3,$4,$5,0*
20,1,$1+$1,$4,$5,$6,$7,0*
20,1,$1+$1,$6,$7,$8,$9,0*
20,1,$1+$1,$8,$9,$2,$3,0*%
G04 Aperture macros list end*
%ADD10RoundRect,0.250000X-0.650000X0.412500X-0.650000X-0.412500X0.650000X-0.412500X0.650000X0.412500X0*%
%ADD11RoundRect,0.100000X-0.637500X-0.100000X0.637500X-0.100000X0.637500X0.100000X-0.637500X0.100000X0*%
%ADD12R,1.100000X1.000000*%
%ADD13RoundRect,0.250000X0.650000X-0.412500X0.650000X0.412500X-0.650000X0.412500X-0.650000X-0.412500X0*%
%ADD14RoundRect,0.225000X0.225000X0.375000X-0.225000X0.375000X-0.225000X-0.375000X0.225000X-0.375000X0*%
%ADD15R,1.000000X1.100000*%
%ADD16RoundRect,0.250000X-0.412500X-0.650000X0.412500X-0.650000X0.412500X0.650000X-0.412500X0.650000X0*%
%ADD17RoundRect,0.250000X0.250000X0.475000X-0.250000X0.475000X-0.250000X-0.475000X0.250000X-0.475000X0*%
%ADD18RoundRect,0.225000X-0.225000X-0.375000X0.225000X-0.375000X0.225000X0.375000X-0.225000X0.375000X0*%
%ADD19RoundRect,0.150000X0.512500X0.150000X-0.512500X0.150000X-0.512500X-0.150000X0.512500X-0.150000X0*%
%ADD20RoundRect,0.375000X-0.375000X0.625000X-0.375000X-0.625000X0.375000X-0.625000X0.375000X0.625000X0*%
%ADD21RoundRect,0.500000X-1.400000X0.500000X-1.400000X-0.500000X1.400000X-0.500000X1.400000X0.500000X0*%
%ADD22RoundRect,0.250000X-0.475000X0.250000X-0.475000X-0.250000X0.475000X-0.250000X0.475000X0.250000X0*%
%ADD23RoundRect,0.250000X-0.900000X1.000000X-0.900000X-1.000000X0.900000X-1.000000X0.900000X1.000000X0*%
G04 APERTURE END LIST*
D10*
%TO.C,C37*%
X120800000Y-127237500D03*
X120800000Y-130362500D03*
%TD*%
%TO.C,C36*%
X128600000Y-127237500D03*
X128600000Y-130362500D03*
%TD*%
%TO.C,C35*%
X126000000Y-127237500D03*
X126000000Y-130362500D03*
%TD*%
%TO.C,C34*%
X123400000Y-127237500D03*
X123400000Y-130362500D03*
%TD*%
D11*
%TO.C,U3*%
X171862500Y-61725000D03*
X171862500Y-62375000D03*
X171862500Y-63025000D03*
X171862500Y-63675000D03*
X171862500Y-64325000D03*
X171862500Y-64975000D03*
X171862500Y-65625000D03*
X171862500Y-66275000D03*
X166137500Y-66275000D03*
X166137500Y-65625000D03*
X166137500Y-64975000D03*
X166137500Y-64325000D03*
X166137500Y-63675000D03*
X166137500Y-63025000D03*
X166137500Y-62375000D03*
X166137500Y-61725000D03*
%TD*%
%TO.C,U5*%
X171862500Y-71725000D03*
X171862500Y-72375000D03*
X171862500Y-73025000D03*
X171862500Y-73675000D03*
X171862500Y-74325000D03*
X171862500Y-74975000D03*
X171862500Y-75625000D03*
X171862500Y-76275000D03*
X166137500Y-76275000D03*
X166137500Y-75625000D03*
X166137500Y-74975000D03*
X166137500Y-74325000D03*
X166137500Y-73675000D03*
X166137500Y-73025000D03*
X166137500Y-72375000D03*
X166137500Y-71725000D03*
%TD*%
%TO.C,U7*%
X171862500Y-81725000D03*
X171862500Y-82375000D03*
X171862500Y-83025000D03*
X171862500Y-83675000D03*
X171862500Y-84325000D03*
X171862500Y-84975000D03*
X171862500Y-85625000D03*
X171862500Y-86275000D03*
X166137500Y-86275000D03*
X166137500Y-85625000D03*
X166137500Y-84975000D03*
X166137500Y-84325000D03*
X166137500Y-83675000D03*
X166137500Y-83025000D03*
X166137500Y-82375000D03*
X166137500Y-81725000D03*
%TD*%
D12*
%TO.C,R24*%
X171712500Y-100925000D03*
X170012500Y-100925000D03*
%TD*%
%TO.C,C33*%
X174650000Y-74500000D03*
X176350000Y-74500000D03*
%TD*%
%TO.C,C31*%
X174650000Y-64500000D03*
X176350000Y-64500000D03*
%TD*%
%TO.C,R43*%
X173103100Y-134095600D03*
X174803100Y-134095600D03*
%TD*%
%TO.C,R12*%
X174803100Y-142223600D03*
X173103100Y-142223600D03*
%TD*%
%TO.C,C16*%
X163350000Y-69500000D03*
X161650000Y-69500000D03*
%TD*%
D10*
%TO.C,C6*%
X128000000Y-133175000D03*
X128000000Y-136300000D03*
%TD*%
D12*
%TO.C,R16*%
X174100000Y-100925000D03*
X175800000Y-100925000D03*
%TD*%
%TO.C,C20*%
X157712500Y-96925000D03*
X156012500Y-96925000D03*
%TD*%
D13*
%TO.C,C4*%
X144000000Y-136300000D03*
X144000000Y-133175000D03*
%TD*%
D12*
%TO.C,R22*%
X171712500Y-94925000D03*
X170012500Y-94925000D03*
%TD*%
D14*
%TO.C,D9*%
X151150000Y-72500000D03*
X147850000Y-72500000D03*
%TD*%
D12*
%TO.C,R49*%
X158150000Y-122500000D03*
X159850000Y-122500000D03*
%TD*%
%TO.C,R45*%
X173103100Y-130031600D03*
X174803100Y-130031600D03*
%TD*%
D14*
%TO.C,D2*%
X126800000Y-70500000D03*
X123500000Y-70500000D03*
%TD*%
D15*
%TO.C,R28*%
X163000000Y-73350000D03*
X163000000Y-71650000D03*
%TD*%
D12*
%TO.C,R5*%
X174650000Y-72500000D03*
X176350000Y-72500000D03*
%TD*%
%TO.C,R6*%
X146150000Y-67500000D03*
X147850000Y-67500000D03*
%TD*%
D15*
%TO.C,C8*%
X121500000Y-133950000D03*
X121500000Y-135650000D03*
%TD*%
D12*
%TO.C,C29*%
X130150000Y-87000000D03*
X131850000Y-87000000D03*
%TD*%
D16*
%TO.C,C21*%
X162300000Y-101925000D03*
X165425000Y-101925000D03*
%TD*%
D12*
%TO.C,C13*%
X163350000Y-60000000D03*
X161650000Y-60000000D03*
%TD*%
D17*
%TO.C,C17*%
X157812500Y-94250000D03*
X155912500Y-94250000D03*
%TD*%
D12*
%TO.C,R31*%
X155323100Y-143000000D03*
X157023100Y-143000000D03*
%TD*%
D15*
%TO.C,C12*%
X159000000Y-75150000D03*
X159000000Y-76850000D03*
%TD*%
%TO.C,R20*%
X122645100Y-151328600D03*
X122645100Y-149628600D03*
%TD*%
D12*
%TO.C,R4*%
X174650000Y-62500000D03*
X176350000Y-62500000D03*
%TD*%
%TO.C,R3*%
X127650000Y-68000000D03*
X129350000Y-68000000D03*
%TD*%
D15*
%TO.C,C25*%
X159000000Y-65650000D03*
X159000000Y-67350000D03*
%TD*%
D18*
%TO.C,D6*%
X123500000Y-73000000D03*
X126800000Y-73000000D03*
%TD*%
D12*
%TO.C,R41*%
X162850000Y-81000000D03*
X161150000Y-81000000D03*
%TD*%
%TO.C,R61*%
X173103100Y-136127600D03*
X174803100Y-136127600D03*
%TD*%
%TO.C,R34*%
X173103100Y-117585600D03*
X174803100Y-117585600D03*
%TD*%
%TO.C,R15*%
X158801100Y-146541600D03*
X157101100Y-146541600D03*
%TD*%
%TO.C,R10*%
X174803100Y-146287600D03*
X173103100Y-146287600D03*
%TD*%
%TO.C,R47*%
X158150000Y-124500000D03*
X159850000Y-124500000D03*
%TD*%
D10*
%TO.C,C7*%
X124650000Y-133175000D03*
X124650000Y-136300000D03*
%TD*%
D12*
%TO.C,R8*%
X174803100Y-148319600D03*
X173103100Y-148319600D03*
%TD*%
%TO.C,C27*%
X144150000Y-87000000D03*
X145850000Y-87000000D03*
%TD*%
%TO.C,C32*%
X127637100Y-153653600D03*
X129337100Y-153653600D03*
%TD*%
D15*
%TO.C,C5*%
X147000000Y-135500000D03*
X147000000Y-133800000D03*
%TD*%
D19*
%TO.C,U12*%
X132137500Y-84950000D03*
X132137500Y-84000000D03*
X132137500Y-83050000D03*
X129862500Y-83050000D03*
X129862500Y-84950000D03*
%TD*%
D12*
%TO.C,R33*%
X162850000Y-85000000D03*
X161150000Y-85000000D03*
%TD*%
D18*
%TO.C,D10*%
X147850000Y-70000000D03*
X151150000Y-70000000D03*
%TD*%
D12*
%TO.C,R17*%
X174200000Y-94925000D03*
X175900000Y-94925000D03*
%TD*%
%TO.C,R14*%
X152512500Y-95425000D03*
X154212500Y-95425000D03*
%TD*%
%TO.C,C44*%
X160657100Y-146541600D03*
X162357100Y-146541600D03*
%TD*%
D15*
%TO.C,R37*%
X140298100Y-154503600D03*
X140298100Y-152803600D03*
%TD*%
D12*
%TO.C,C10*%
X174803100Y-138159600D03*
X173103100Y-138159600D03*
%TD*%
%TO.C,R25*%
X171712500Y-98925000D03*
X170012500Y-98925000D03*
%TD*%
%TO.C,C14*%
X161012500Y-91425000D03*
X162712500Y-91425000D03*
%TD*%
D15*
%TO.C,R30*%
X163000000Y-65650000D03*
X163000000Y-67350000D03*
%TD*%
D12*
%TO.C,C28*%
X144150000Y-93000000D03*
X145850000Y-93000000D03*
%TD*%
D15*
%TO.C,R1*%
X163000000Y-62150000D03*
X163000000Y-63850000D03*
%TD*%
D12*
%TO.C,R39*%
X149403100Y-150986600D03*
X147703100Y-150986600D03*
%TD*%
%TO.C,R62*%
X157023100Y-140445600D03*
X155323100Y-140445600D03*
%TD*%
D14*
%TO.C,D5*%
X132800000Y-73000000D03*
X129500000Y-73000000D03*
%TD*%
D12*
%TO.C,R19*%
X174200000Y-96925000D03*
X175900000Y-96925000D03*
%TD*%
%TO.C,R40*%
X162850000Y-83000000D03*
X161150000Y-83000000D03*
%TD*%
%TO.C,R44*%
X173103100Y-132063600D03*
X174803100Y-132063600D03*
%TD*%
D18*
%TO.C,D7*%
X142350000Y-72500000D03*
X145650000Y-72500000D03*
%TD*%
D13*
%TO.C,C1*%
X140650000Y-136300000D03*
X140650000Y-133175000D03*
%TD*%
D12*
%TO.C,R18*%
X157712500Y-100925000D03*
X156012500Y-100925000D03*
%TD*%
%TO.C,C11*%
X143050000Y-110500000D03*
X144750000Y-110500000D03*
%TD*%
D15*
%TO.C,R13*%
X161000000Y-75150000D03*
X161000000Y-76850000D03*
%TD*%
D19*
%TO.C,U8*%
X146137500Y-84950000D03*
X146137500Y-84000000D03*
X146137500Y-83050000D03*
X143862500Y-83050000D03*
X143862500Y-84950000D03*
%TD*%
D12*
%TO.C,R11*%
X174803100Y-140191600D03*
X173103100Y-140191600D03*
%TD*%
%TO.C,C3*%
X130150000Y-110500000D03*
X131850000Y-110500000D03*
%TD*%
D15*
%TO.C,C2*%
X159000000Y-63850000D03*
X159000000Y-62150000D03*
%TD*%
D11*
%TO.C,U2*%
X161137500Y-93575000D03*
X161137500Y-94225000D03*
X161137500Y-94875000D03*
X161137500Y-95525000D03*
X161137500Y-96175000D03*
X161137500Y-96825000D03*
X161137500Y-97475000D03*
X161137500Y-98125000D03*
X161137500Y-98775000D03*
X161137500Y-99425000D03*
X166862500Y-99425000D03*
X166862500Y-98775000D03*
X166862500Y-98125000D03*
X166862500Y-97475000D03*
X166862500Y-96825000D03*
X166862500Y-96175000D03*
X166862500Y-95525000D03*
X166862500Y-94875000D03*
X166862500Y-94225000D03*
X166862500Y-93575000D03*
%TD*%
D12*
%TO.C,C22*%
X152512500Y-99425000D03*
X154212500Y-99425000D03*
%TD*%
D15*
%TO.C,R7*%
X163000000Y-76850000D03*
X163000000Y-75150000D03*
%TD*%
D12*
%TO.C,R46*%
X158150000Y-120500000D03*
X159850000Y-120500000D03*
%TD*%
D15*
%TO.C,R27*%
X161000000Y-71650000D03*
X161000000Y-73350000D03*
%TD*%
D12*
%TO.C,R9*%
X158801100Y-148573600D03*
X157101100Y-148573600D03*
%TD*%
D14*
%TO.C,D8*%
X145650000Y-70000000D03*
X142350000Y-70000000D03*
%TD*%
D12*
%TO.C,C23*%
X152512500Y-93425000D03*
X154212500Y-93425000D03*
%TD*%
%TO.C,C30*%
X130150000Y-93000000D03*
X131850000Y-93000000D03*
%TD*%
%TO.C,C9*%
X174803100Y-144255600D03*
X173103100Y-144255600D03*
%TD*%
%TO.C,R38*%
X149403100Y-153018600D03*
X147703100Y-153018600D03*
%TD*%
D20*
%TO.C,U4*%
X136550000Y-131650000D03*
X134250000Y-131650000D03*
D21*
X134250000Y-137950000D03*
D20*
X131950000Y-131650000D03*
%TD*%
D15*
%TO.C,R2*%
X161000000Y-63850000D03*
X161000000Y-62150000D03*
%TD*%
%TO.C,R36*%
X137758100Y-154503600D03*
X137758100Y-152803600D03*
%TD*%
D12*
%TO.C,R21*%
X171712500Y-96925000D03*
X170012500Y-96925000D03*
%TD*%
%TO.C,R32*%
X162350000Y-144500000D03*
X160650000Y-144500000D03*
%TD*%
%TO.C,R23*%
X156012500Y-98925000D03*
X157712500Y-98925000D03*
%TD*%
%TO.C,C26*%
X174650000Y-81000000D03*
X176350000Y-81000000D03*
%TD*%
D15*
%TO.C,C24*%
X159000000Y-73350000D03*
X159000000Y-71650000D03*
%TD*%
%TO.C,R29*%
X161000000Y-67350000D03*
X161000000Y-65650000D03*
%TD*%
D12*
%TO.C,C15*%
X166712500Y-91425000D03*
X165012500Y-91425000D03*
%TD*%
D22*
%TO.C,C19*%
X157362500Y-90300000D03*
X157362500Y-92200000D03*
%TD*%
D12*
%TO.C,R48*%
X158150000Y-126500000D03*
X159850000Y-126500000D03*
%TD*%
D19*
%TO.C,U11*%
X132137500Y-90950000D03*
X132137500Y-90000000D03*
X132137500Y-89050000D03*
X129862500Y-89050000D03*
X129862500Y-90950000D03*
%TD*%
%TO.C,U10*%
X146137500Y-90950000D03*
X146137500Y-90000000D03*
X146137500Y-89050000D03*
X143862500Y-89050000D03*
X143862500Y-90950000D03*
%TD*%
D12*
%TO.C,R26*%
X152512500Y-97425000D03*
X154212500Y-97425000D03*
%TD*%
%TO.C,R42*%
X159850000Y-118400000D03*
X158150000Y-118400000D03*
%TD*%
%TO.C,C18*%
X170012500Y-92925000D03*
X171712500Y-92925000D03*
%TD*%
D23*
%TO.C,D3*%
X136500000Y-71850000D03*
X136500000Y-76150000D03*
%TD*%
D18*
%TO.C,D4*%
X129500000Y-70500000D03*
X132800000Y-70500000D03*
%TD*%
M02*
