%TF.GenerationSoftware,KiCad,Pcbnew,9.0.6-9.0.6~ubuntu22.04.1*%
%TF.CreationDate,2025-12-28T19:28:58-08:00*%
%TF.ProjectId,tool2,746f6f6c-322e-46b6-9963-61645f706362,rev?*%
%TF.SameCoordinates,Original*%
%TF.FileFunction,Soldermask,Bot*%
%TF.FilePolarity,Negative*%
%FSLAX46Y46*%
G04 Gerber Fmt 4.6, Leading zero omitted, Abs format (unit mm)*
G04 Created by KiCad (PCBNEW 9.0.6-9.0.6~ubuntu22.04.1) date 2025-12-28 19:28:58*
%MOMM*%
%LPD*%
G01*
G04 APERTURE LIST*
G04 Aperture macros list*
%AMRoundRect*
0 Rectangle with rounded corners*
0 $1 Rounding radius*
0 $2 $3 $4 $5 $6 $7 $8 $9 X,Y pos of 4 corners*
0 Add a 4 corners polygon primitive as box body*
4,1,4,$2,$3,$4,$5,$6,$7,$8,$9,$2,$3,0*
0 Add four circle primitives for the rounded corners*
1,1,$1+$1,$2,$3*
1,1,$1+$1,$4,$5*
1,1,$1+$1,$6,$7*
1,1,$1+$1,$8,$9*
0 Add four rect primitives between the rounded corners*
20,1,$1+$1,$2,$3,$4,$5,0*
20,1,$1+$1,$4,$5,$6,$7,0*
20,1,$1+$1,$6,$7,$8,$9,0*
20,1,$1+$1,$8,$9,$2,$3,0*%
G04 Aperture macros list end*
%ADD10RoundRect,0.101600X-0.780000X-0.780000X0.780000X-0.780000X0.780000X0.780000X-0.780000X0.780000X0*%
%ADD11C,1.763200*%
%ADD12RoundRect,0.101600X-0.350000X-0.550000X0.350000X-0.550000X0.350000X0.550000X-0.350000X0.550000X0*%
%ADD13RoundRect,0.101600X-0.525000X-0.390000X0.525000X-0.390000X0.525000X0.390000X-0.525000X0.390000X0*%
%ADD14RoundRect,0.101600X-0.450000X-0.465000X0.450000X-0.465000X0.450000X0.465000X-0.450000X0.465000X0*%
%ADD15RoundRect,0.101600X-0.350000X-1.665000X0.350000X-1.665000X0.350000X1.665000X-0.350000X1.665000X0*%
%ADD16RoundRect,0.101600X-0.430000X-1.400000X0.430000X-1.400000X0.430000X1.400000X-0.430000X1.400000X0*%
%ADD17RoundRect,0.101600X-0.570000X0.915000X-0.570000X-0.915000X0.570000X-0.915000X0.570000X0.915000X0*%
%ADD18C,1.703200*%
%ADD19O,2.000000X1.200000*%
%ADD20C,1.553200*%
%ADD21C,2.603200*%
%ADD22O,1.727200X3.251200*%
%ADD23C,3.250000*%
%ADD24RoundRect,0.250000X0.510000X0.510000X-0.510000X0.510000X-0.510000X-0.510000X0.510000X-0.510000X0*%
%ADD25C,1.520000*%
G04 APERTURE END LIST*
D10*
%TO.C,U1*%
X152363100Y-112557600D03*
D11*
X152363100Y-115097600D03*
X152363100Y-117637600D03*
X152363100Y-120177600D03*
X152363100Y-122717600D03*
X152363100Y-125257600D03*
X152363100Y-127797600D03*
X152363100Y-130337600D03*
X152363100Y-132877600D03*
X152363100Y-135417600D03*
X152363100Y-137957600D03*
X152363100Y-140497600D03*
X152363100Y-143037600D03*
X152363100Y-145577600D03*
X152363100Y-148117600D03*
X152363100Y-150657600D03*
X152363100Y-153197600D03*
X152363100Y-155737600D03*
X152363100Y-158277600D03*
X177763100Y-112557600D03*
X177763100Y-115097600D03*
X177763100Y-117637600D03*
X177763100Y-120177600D03*
X177763100Y-122717600D03*
X177763100Y-125257600D03*
X177763100Y-127797600D03*
X177763100Y-130337600D03*
X177763100Y-132877600D03*
X177763100Y-135417600D03*
X177763100Y-137957600D03*
X177763100Y-140497600D03*
X177763100Y-143037600D03*
X177763100Y-145577600D03*
X177763100Y-148117600D03*
X177763100Y-150657600D03*
X177763100Y-153197600D03*
X177763100Y-155737600D03*
X177763100Y-158277600D03*
%TD*%
D12*
%TO.C,J7*%
X133934100Y-153699600D03*
X132834100Y-153699600D03*
X131734100Y-153699600D03*
X130634100Y-153699600D03*
X129534100Y-153699600D03*
X128434100Y-153699600D03*
X127334100Y-153699600D03*
X126234100Y-153699600D03*
D13*
X128709100Y-141159600D03*
D14*
X124444100Y-141234600D03*
D15*
X135094100Y-142434600D03*
X122134100Y-142434600D03*
D16*
X135014100Y-153199600D03*
D17*
X122354100Y-153684600D03*
%TD*%
D18*
%TO.C,SW1*%
X168837100Y-154415600D03*
X164337100Y-154415600D03*
X170087100Y-151915600D03*
X163087100Y-151915600D03*
%TD*%
%TO.C,SW2*%
X159947100Y-154415600D03*
X155447100Y-154415600D03*
X161197100Y-151915600D03*
X154197100Y-151915600D03*
%TD*%
D19*
%TO.C,U6*%
X140000000Y-123100000D03*
X140000000Y-120560000D03*
X140000000Y-118020000D03*
X140000000Y-115480000D03*
X140000000Y-112940000D03*
X140000000Y-110400000D03*
X140000000Y-107860000D03*
X140000000Y-95160000D03*
X140000000Y-92620000D03*
X140000000Y-90080000D03*
X140000000Y-87540000D03*
X140000000Y-85000000D03*
X140000000Y-82460000D03*
X140000000Y-79920000D03*
%TD*%
%TO.C,U9*%
X125500000Y-123100000D03*
X125500000Y-120560000D03*
X125500000Y-118020000D03*
X125500000Y-115480000D03*
X125500000Y-112940000D03*
X125500000Y-110400000D03*
X125500000Y-107860000D03*
X125500000Y-95160000D03*
X125500000Y-92620000D03*
X125500000Y-90080000D03*
X125500000Y-87540000D03*
X125500000Y-85000000D03*
X125500000Y-82460000D03*
X125500000Y-79920000D03*
%TD*%
D20*
%TO.C,D1*%
X172683100Y-155553600D03*
X172683100Y-153013600D03*
X175223100Y-155553600D03*
X175223100Y-153013600D03*
%TD*%
D21*
%TO.C,TP7*%
X119851100Y-151113600D03*
%TD*%
D22*
%TO.C,JP3*%
X137833100Y-150088600D03*
X140373100Y-150088600D03*
X142913100Y-150088600D03*
X145453100Y-150088600D03*
%TD*%
D23*
%TO.C,J1*%
X133080000Y-55650000D03*
X122920000Y-55650000D03*
D24*
X131180000Y-64540000D03*
D25*
X129910000Y-62000000D03*
X128640000Y-64540000D03*
X127370000Y-62000000D03*
X126100000Y-64540000D03*
X124830000Y-62000000D03*
%TD*%
D23*
%TO.C,J2*%
X153100000Y-55650000D03*
X142940000Y-55650000D03*
D24*
X151200000Y-64540000D03*
D25*
X149930000Y-62000000D03*
X148660000Y-64540000D03*
X147390000Y-62000000D03*
X146120000Y-64540000D03*
X144850000Y-62000000D03*
%TD*%
G36*
X183482794Y-50021906D02*
G01*
X183501100Y-50066100D01*
X183501100Y-159941100D01*
X183482794Y-159985294D01*
X183438600Y-160003600D01*
X181964600Y-160003600D01*
X181920406Y-159985294D01*
X181902100Y-159941100D01*
X181902100Y-50066100D01*
X181920406Y-50021906D01*
X181964600Y-50003600D01*
X183438600Y-50003600D01*
X183482794Y-50021906D01*
G37*
G36*
X115081794Y-50021906D02*
G01*
X115100100Y-50066100D01*
X115100100Y-159941100D01*
X115081794Y-159985294D01*
X115037600Y-160003600D01*
X113563600Y-160003600D01*
X113519406Y-159985294D01*
X113501100Y-159941100D01*
X113501100Y-50066100D01*
X113519406Y-50021906D01*
X113563600Y-50003600D01*
X115037600Y-50003600D01*
X115081794Y-50021906D01*
G37*
M02*
